<svg width="64" height="64" viewBox="0 0 64 64" fill="none" xmlns="http://www.w3.org/2000/svg">
<g clip-path="url(#clip0)">
<path d="M62.5259 21.3877C63.1763 22.0478 63.2505 23.0898 62.6866 23.8257C60.7129 26.4013 61.5777 28.0278 58.6353 30.9272C55.2632 34.2495 53.6362 32.5981 50.2647 35.9199C46.8931 39.2422 48.52 40.8935 45.1485 44.2153C41.7769 47.5371 40.1499 45.8857 36.7783 49.2075C33.4072 52.5293 35.0342 54.1806 31.6626 57.5029C28.7202 60.4018 27.1065 59.5132 24.5024 61.4477C23.7583 62.001 22.7178 61.9111 22.0669 61.251L10.7036 49.7178C9.86816 48.8696 10.0244 47.4619 11.0322 46.8276C13.3223 45.3852 14.9082 45.9516 17.6348 43.2651C21.0064 39.9433 19.3789 38.292 22.7505 34.9702C26.1221 31.6484 27.749 33.2998 31.1206 29.978C34.4922 26.6557 32.8652 25.0044 36.2363 21.6826C39.6084 18.3603 41.2354 20.0117 44.6069 16.6899C47.334 14.0029 46.791 12.4092 48.2676 10.1401C48.917 9.14255 50.3267 9.00681 51.1621 9.85495L62.5259 21.3877Z" fill="#EA4444"/>
<path d="M62.6866 23.8252C60.7124 26.4019 61.5772 28.0278 58.6353 30.9273C55.2627 34.249 53.6358 32.5977 50.2647 35.9199C46.8931 39.2417 48.5196 40.8931 45.148 44.2149C41.7769 47.5366 40.1499 45.8858 36.7783 49.2075C33.4072 52.5293 35.0332 54.1807 31.6621 57.5025C28.7202 60.4019 27.106 59.5122 24.502 61.4473C23.7573 62.0005 22.7178 61.9112 22.0674 61.2505L20.3301 59.4883C20.9795 59.9785 21.8877 60 22.5576 59.503C25.1616 57.5679 26.7759 58.4575 29.7178 55.5581C33.0889 52.2363 31.4629 50.585 34.834 47.2632C38.2056 43.9409 39.8325 45.5923 43.2036 42.2705C46.5762 38.9487 44.9487 37.2974 48.3203 33.9751C51.6914 30.6533 53.3184 32.3047 56.6909 28.9829C59.6328 26.0835 58.7681 24.457 60.7422 21.8809C61.3057 21.1455 61.2315 20.1035 60.5806 19.4429L50.9517 9.67041C51.0249 9.72559 51.0957 9.78711 51.1621 9.85498L62.5254 21.3872C63.1758 22.0479 63.25 23.0899 62.6866 23.8252Z" fill="#D93131"/>
<path d="M59.2935 18.1074C55.9214 21.4292 57.5488 23.0806 54.1768 26.4028C50.8052 29.7246 49.1782 28.0732 45.8067 31.3955C42.4351 34.7173 44.062 36.3687 40.6904 39.6909C37.3189 43.0127 35.6919 41.3613 32.3203 44.6831C28.9487 48.0049 30.5762 49.6563 27.2046 52.978C23.833 56.2998 22.2061 54.6485 18.8345 57.9702L13.7227 52.7818C17.0942 49.46 18.7212 51.1113 22.0923 47.7896C25.4639 44.4678 23.8369 42.8164 27.2085 39.4946C30.5801 36.1724 32.207 37.8237 35.5786 34.5025C38.9497 31.1802 37.3228 29.5288 40.6943 26.207C44.0659 22.8848 45.6934 24.5361 49.065 21.2144C52.4365 17.8921 50.8096 16.2407 54.1812 12.9189L59.2935 18.1074Z" fill="#FDD79B"/>
<path d="M59.294 18.1079C55.9214 21.4297 57.5488 23.0811 54.1773 26.4028C50.8052 29.7246 49.1777 28.0737 45.8067 31.3955C42.4356 34.7173 44.0615 36.3687 40.6904 39.6904C37.3189 43.0127 35.6919 41.3613 32.3208 44.6831C28.9492 48.0054 30.5757 49.6563 27.2041 52.9785C23.833 56.2993 22.2061 54.648 18.8345 57.9698L16.6191 55.7207C19.9785 52.4209 21.606 54.0606 24.9712 50.7451C28.3423 47.4234 26.7163 45.772 30.0879 42.4502C33.459 39.1284 35.0859 40.7793 38.457 37.4575C41.8286 34.1358 40.2026 32.4844 43.5737 29.1626C46.9448 25.8403 48.5723 27.4917 51.9444 24.1699C55.3154 20.8477 53.6885 19.1968 57.0606 15.8745L54.1646 12.9351C54.1695 12.9297 54.1748 12.9248 54.1807 12.9194L59.294 18.1079Z" fill="#FCCD7F"/>
<path d="M30.0342 5.70945C30.9409 5.90183 31.5772 6.72996 31.5122 7.65476C31.2861 10.8916 32.9043 11.7715 32.0484 15.813C31.0674 20.4438 28.7993 19.9634 27.8184 24.5937C26.8374 29.2241 29.1055 29.7046 28.1245 34.335C27.1436 38.9648 24.8755 38.4844 23.8945 43.1147C22.9136 47.7451 25.1816 48.2256 24.2007 52.856C23.3442 56.897 21.5078 57.0449 20.4023 60.0952C20.0864 60.9668 19.169 61.4658 18.2622 61.2739L2.42334 57.9185C1.2583 57.6719 0.612789 56.4106 1.10351 55.3262C2.21875 52.8599 3.854 52.458 4.64697 48.7134C5.62793 44.0835 3.36035 43.603 4.34131 38.9727C5.32226 34.3423 7.58984 34.8227 8.5708 30.1924C9.55225 25.562 7.28418 25.0815 8.26514 20.4516C9.24609 15.8208 11.5142 16.3013 12.4951 11.6709C13.2886 7.92576 11.9565 6.89549 11.9375 4.18845C11.9287 2.99802 13.0303 2.1074 14.1948 2.35398L30.0342 5.70945Z" fill="#EA4444"/>
<path d="M31.5122 7.6543C31.2862 10.8921 32.9038 11.772 32.0484 15.813C31.0669 20.4439 28.7988 19.9634 27.8184 24.5938C26.8379 29.2236 29.1045 29.7046 28.124 34.335C27.1436 38.9649 24.8755 38.4849 23.8945 43.1148C22.9141 47.7451 25.1812 48.2261 24.2007 52.8565C23.3452 56.897 21.5073 57.0454 20.4024 60.0952C20.0864 60.9673 19.1694 61.4663 18.2627 61.2735L15.8418 60.7613C16.6538 60.812 17.4233 60.3291 17.708 59.5454C18.8135 56.4951 20.6509 56.3472 21.5064 52.3062C22.4868 47.6758 20.2197 47.1953 21.2007 42.565C22.1812 37.9346 24.4492 38.4151 25.4297 33.7847C26.4116 29.1543 24.1436 28.6738 25.124 24.0435C26.105 19.4131 28.3726 19.8936 29.3545 15.2627C30.21 11.2222 28.5918 10.3423 28.8184 7.10401C28.8828 6.18018 28.2461 5.35205 27.3394 5.15918L13.9175 2.31641C14.0088 2.32178 14.1025 2.33447 14.1953 2.354L30.0337 5.70947C30.9405 5.90186 31.5772 6.72998 31.5122 7.6543Z" fill="#D93131"/>
<path d="M25.5283 4.75488C24.5474 9.38575 26.8154 9.86622 25.8345 14.4966C24.8535 19.1275 22.5855 18.647 21.6045 23.2774C20.6235 27.9077 22.8916 28.3882 21.9102 33.0186C20.9292 37.6489 18.6616 37.168 17.6807 41.7984C16.6997 46.4287 18.9673 46.9092 17.9863 51.5396C17.0054 56.17 14.7378 55.689 13.7568 60.3194L6.63135 58.8101C7.61231 54.1797 9.87988 54.6602 10.8608 50.0298C11.8418 45.3999 9.57422 44.9195 10.5552 40.2891C11.5361 35.6587 13.8037 36.1392 14.7847 31.5088C15.7661 26.8784 13.4981 26.398 14.479 21.7681C15.46 17.1372 17.728 17.6177 18.709 12.9873C19.6899 8.35645 17.4219 7.87598 18.4028 3.24561L25.5283 4.75488Z" fill="#FDD79B"/>
<path d="M25.5293 4.75537C24.5474 9.38624 26.8154 9.86622 25.835 14.4966C24.8535 19.1275 22.5855 18.647 21.6045 23.2774C20.624 27.9077 22.8911 28.3887 21.9102 33.0186C20.9297 37.649 18.6616 37.1685 17.6812 41.7989C16.7007 46.4287 18.9673 46.9097 17.9868 51.5401C17.0054 56.1695 14.7373 55.689 13.7568 60.3194L10.6685 59.6651C11.6514 55.0591 13.9131 55.5298 14.8926 50.9087C15.8735 46.2784 13.6064 45.7974 14.5869 41.1675C15.5679 36.5371 17.8359 37.0176 18.8164 32.3872C19.7969 27.7569 17.5298 27.2764 18.5107 22.646C19.4912 18.0156 21.7593 18.4961 22.7407 13.8652C23.7217 9.23487 21.4536 8.75489 22.4351 4.12402L18.3984 3.26855C18.3989 3.26123 18.4014 3.25439 18.4028 3.24609L25.5293 4.75537Z" fill="#FCCD7F"/>
<path d="M63.1934 20.73L59.961 17.4492L54.8491 12.2607L51.8301 9.19677C51.2295 8.58739 50.3965 8.28759 49.5449 8.37304C48.6973 8.45849 47.9448 8.9165 47.4815 9.6289C46.8565 10.5893 46.5635 11.4243 46.2803 12.2314C45.8506 13.456 45.48 14.5132 43.9487 16.022C42.4175 17.5308 41.355 17.8857 40.1245 18.2969C38.8565 18.7207 37.419 19.2012 35.5786 21.0146C33.7378 22.8281 33.2363 24.2583 32.7935 25.5195C32.3643 26.7441 31.9932 27.8013 30.4624 29.3101C29.9858 29.7798 29.5547 30.1367 29.1494 30.4194C29.0713 29.9966 28.9741 29.6084 28.8804 29.2358C28.6694 28.397 28.4697 27.605 28.5088 26.519C28.5274 26.0015 28.1231 25.5669 27.6055 25.5483C27.085 25.5298 26.6533 25.9341 26.6348 26.4517C26.5864 27.8037 26.8281 28.7647 27.062 29.6934C27.3789 30.9517 27.6524 32.0381 27.207 34.1406C26.7617 36.2432 26.0708 37.1255 25.271 38.147C24.4468 39.1997 23.5127 40.3931 22.9771 42.9209C22.4419 45.4483 22.812 46.918 23.1382 48.2144C23.4551 49.4727 23.7285 50.5591 23.2832 52.6616C22.8379 54.7642 22.147 55.6465 21.3472 56.668C20.7363 57.4483 20.0439 58.3325 19.521 59.7759C19.3662 60.2031 18.9077 60.4522 18.4565 60.357L14.9023 59.604C15.3398 58.1294 15.936 57.3677 16.6099 56.5073C17.4341 55.4546 18.3682 54.2617 18.9033 51.7339C19.439 49.2061 19.0688 47.7368 18.7427 46.44C18.4258 45.1821 18.1523 44.0952 18.5977 41.9927C19.043 39.8901 19.7339 39.0078 20.5337 37.9863C21.3579 36.9336 22.292 35.7407 22.8276 33.2129C23.3628 30.6851 22.9927 29.2158 22.6665 27.9189C22.3496 26.6606 22.0757 25.5742 22.5215 23.4717C22.9668 21.3691 23.6577 20.4868 24.4575 19.4648C25.2817 18.4121 26.2158 17.2187 26.7515 14.6909C27.2871 12.1631 26.917 10.6934 26.5903 9.39697C26.3237 8.33788 26.0898 7.39794 26.2871 5.87401L29.8399 6.62646C30.292 6.72265 30.6089 7.13622 30.5772 7.58935C30.4702 9.12109 30.7442 10.21 30.9863 11.1714C31.3032 12.4297 31.5767 13.5161 31.1314 15.6186C30.6856 17.7217 29.9946 18.604 29.1948 19.6255C28.708 20.248 28.2041 20.8916 27.7559 21.8145C27.5298 22.2803 27.7241 22.8408 28.1899 23.0669C28.6563 23.2935 29.2168 23.0991 29.4429 22.6333C29.8037 21.8901 30.2251 21.3516 30.6714 20.7812C31.4956 19.7285 32.4297 18.5352 32.9653 16.0073C33.501 13.4795 33.1309 12.0098 32.8047 10.7134C32.5767 9.8081 32.3613 8.95312 32.4478 7.72021C32.544 6.33935 31.5903 5.08104 30.2285 4.79247L14.3892 1.437C13.5522 1.25927 12.6919 1.46825 12.0288 2.00975C11.3691 2.54833 10.9936 3.34472 11 4.1953C11.0078 5.3413 11.2241 6.19872 11.4331 7.0288C11.75 8.28661 12.0234 9.37353 11.5781 11.4761C11.1323 13.5791 10.4414 14.4614 9.64209 15.4829C8.81787 16.5356 7.8833 17.729 7.34814 20.2568C6.81249 22.7847 7.18261 24.2539 7.50878 25.5508C7.82568 26.8086 8.0996 27.8955 7.6538 29.9981C7.20849 32.1006 6.51757 32.9829 5.71777 34.0044C4.89355 35.0571 3.95947 36.2505 3.42431 38.7778C2.88866 41.3057 3.25878 42.7749 3.58495 44.0718C3.90185 45.3296 4.17529 46.4165 3.72997 48.5191C3.28466 50.6216 2.59374 51.5039 1.79394 52.5254C1.26659 53.1987 0.721671 53.8955 0.249503 54.9395C-0.101084 55.7144 -0.0815524 56.5943 0.303702 57.3545C0.690421 58.1187 1.39208 58.6582 2.229 58.8355L18.0684 62.1914C18.2617 62.2324 18.4556 62.252 18.647 62.252C19.4688 62.252 20.248 61.8872 20.7764 61.2764L21.3994 61.9087C21.9434 62.4615 22.6733 62.7451 23.4053 62.7451C23.9868 62.7451 24.5698 62.5659 25.0615 62.2002C26.0537 61.4634 26.8897 61.1836 27.7749 60.8882C29.043 60.4644 30.4805 59.9839 32.3208 58.1704C32.6973 57.7998 33.0366 57.4258 33.3306 57.0591C33.6543 56.6553 33.5894 56.0655 33.1851 55.7412C32.7813 55.4175 32.1914 55.4829 31.8672 55.8867C31.6192 56.1963 31.3291 56.5156 31.0049 56.835C29.4741 58.3433 28.4111 58.6983 27.1807 59.1099C26.2407 59.4239 25.1758 59.7798 23.9434 60.6953C23.5791 60.9663 23.0596 60.9224 22.7349 60.5933L21.6758 59.5181C22.0205 58.8516 22.4141 58.3477 22.8242 57.8238C23.2105 57.3306 23.6211 56.8057 24.0034 56.1275C25.1035 55.729 26.3462 55.1402 27.8628 53.646C29.7031 51.8325 30.2051 50.4024 30.6475 49.1406C31.0767 47.9165 31.4478 46.8594 32.979 45.3506C34.5098 43.8423 35.5728 43.4873 36.8027 43.0762C38.0708 42.6524 39.5083 42.1719 41.3486 40.3584C43.189 38.5449 43.6909 37.1152 44.1333 35.8535C44.563 34.6289 44.9336 33.5718 46.4649 32.063C47.9961 30.5547 49.0586 30.1992 50.2891 29.7881C51.5572 29.3643 52.9947 28.8838 54.835 27.0703C56.6758 25.2568 57.1773 23.8272 57.6201 22.5654C57.9815 21.5347 58.3042 20.6216 59.3096 19.459L61.8579 22.0459C62.1826 22.375 62.2188 22.895 61.9424 23.2554C61.0088 24.4741 60.6367 25.5342 60.3086 26.4692C59.8794 27.6934 59.5083 28.751 57.9771 30.2593C56.4463 31.7681 55.3833 32.1231 54.1529 32.5347C52.8848 32.9585 51.4473 33.4385 49.607 35.2524C47.7661 37.0654 47.2647 38.4956 46.8223 39.7573C46.3926 40.9815 46.022 42.0391 44.4907 43.5474C42.96 45.0557 41.897 45.4111 40.6665 45.8223C39.3985 46.2461 37.9614 46.7261 36.1211 48.5396C34.6328 50.0054 34.0401 51.1973 33.6563 52.1695C33.4663 52.6509 33.7026 53.1953 34.1841 53.3853C34.666 53.5757 35.2105 53.3389 35.4004 52.8574C35.728 52.0279 36.2012 51.0923 37.437 49.875C38.9678 48.3667 40.0308 48.0112 41.2612 47.6001C42.5288 47.1763 43.9663 46.6963 45.8067 44.8828C47.6475 43.0694 48.1489 41.6392 48.5913 40.3779C49.021 39.1533 49.3916 38.0962 50.9229 36.5874C52.4541 35.0791 53.5166 34.7236 54.7471 34.3125C56.0157 33.8887 57.4527 33.4082 59.2935 31.5947C61.1338 29.7813 61.6358 28.3516 62.0782 27.0898C62.3872 26.209 62.6787 25.377 63.4307 24.3955C64.2725 23.2974 64.1704 21.7212 63.1934 20.73ZM24.4478 5.48437C24.1704 7.46337 24.4878 8.7246 24.7725 9.85448C25.0894 11.1128 25.3628 12.1997 24.9175 14.3022C24.4717 16.4053 23.7813 17.2876 22.9814 18.3091C22.1572 19.3618 21.2227 20.5552 20.6875 23.083C20.1519 25.6108 20.522 27.0806 20.8486 28.377C21.165 29.6348 21.439 30.7217 20.9932 32.8242C20.5479 34.9268 19.8569 35.8091 19.0576 36.8306C18.2329 37.8833 17.2993 39.0767 16.7637 41.604C16.228 44.1319 16.5981 45.6016 16.9248 46.898C17.2412 48.1563 17.5151 49.2427 17.0693 51.3452C16.624 53.4478 15.9331 54.3301 15.1333 55.3516C14.415 56.2691 13.6133 57.2935 13.0649 59.2144L12.2681 59.0459L7.77734 58.0943C8.21484 56.6197 8.81054 55.8579 9.48437 54.9981C10.3086 53.9453 11.2427 52.752 11.7783 50.2241C12.3135 47.6968 11.9438 46.2271 11.6172 44.9307C11.3003 43.6724 11.0269 42.5859 11.4722 40.4834C11.9175 38.3809 12.6084 37.4985 13.4082 36.4771C14.2324 35.4243 15.1665 34.231 15.7021 31.7031C16.2373 29.1758 15.8677 27.7061 15.541 26.4097C15.2241 25.1514 14.9507 24.0649 15.396 21.9619C15.8413 19.8594 16.5322 18.9771 17.332 17.9556C18.1563 16.9023 19.0903 15.709 19.626 13.1811C20.1616 10.6533 19.7915 9.18359 19.4653 7.8872C19.1982 6.82763 18.9619 5.88964 19.1602 4.36425L21.3604 4.83007L24.4478 5.48437ZM1.97607 56.5078C1.90136 56.3604 1.7998 56.0611 1.95751 55.7124C2.33691 54.8736 2.79003 54.2945 3.2705 53.6812C4.09472 52.6284 5.0288 51.4356 5.56445 48.9077C6.0996 46.3799 5.72997 44.9107 5.40331 43.6138C5.08642 42.356 4.81298 41.2695 5.25829 39.1665C5.70361 37.064 6.39453 36.1821 7.19433 35.1602C8.01855 34.1074 8.95263 32.9146 9.48779 30.3867C10.0234 27.8589 9.65332 26.3897 9.32714 25.0928C9.01025 23.835 8.73681 22.748 9.18213 20.6455C9.62744 18.543 10.3184 17.6606 11.1182 16.6392C11.9424 15.5859 12.8765 14.3931 13.4121 11.8652C13.9478 9.33739 13.5776 7.86767 13.251 6.57079C13.061 5.81591 12.8813 5.10253 12.875 4.18163C12.8721 3.79931 13.0864 3.5664 13.2144 3.4619C13.4355 3.28173 13.7222 3.2119 14.0005 3.27099L17.3228 3.9746C17.0454 5.95312 17.3623 7.21532 17.647 8.34521C17.9639 9.60302 18.2373 10.6899 17.792 12.7925C17.3462 14.8955 16.6558 15.7778 15.856 16.7993C15.0317 17.852 14.0972 19.0454 13.562 21.5732C13.0264 24.1011 13.3965 25.5703 13.7227 26.8672C14.0395 28.125 14.3135 29.2119 13.8677 31.3145C13.4224 33.417 12.7314 34.2993 11.9321 35.3208C11.1074 36.3735 10.1733 37.5669 9.63818 40.0942C9.10254 42.6221 9.47265 44.0918 9.79882 45.3882C10.1157 46.6465 10.3896 47.7329 9.94384 49.8355C9.49853 51.938 8.80761 52.8203 8.00781 53.8418C7.28955 54.7593 6.48828 55.7842 5.93945 57.7051L2.61767 57.0015C2.33886 56.9424 2.10497 56.7627 1.97607 56.5078ZM29.0415 34.5293C29.2022 33.771 29.2803 33.1094 29.3032 32.5176C30.0479 32.1182 30.8628 31.5474 31.7783 30.6455C33.6192 28.832 34.1206 27.4019 34.563 26.1401C34.9927 24.916 35.3633 23.8589 36.8945 22.3501C38.4253 20.8418 39.4883 20.4863 40.7188 20.0752C41.9868 19.6514 43.4243 19.1709 45.2647 17.3574C47.1055 15.5439 47.607 14.1138 48.0498 12.852C48.3076 12.1172 48.5508 11.4228 49.0532 10.6514C49.2617 10.331 49.5689 10.2554 49.7334 10.2388C50.0181 10.2095 50.2945 10.3101 50.4947 10.5127L52.8775 12.9316C51.5552 14.4292 51.124 15.6567 50.7383 16.7563C50.3091 17.9805 49.938 19.0381 48.4068 20.5464C46.876 22.0552 45.813 22.4102 44.5825 22.8218C43.3145 23.2456 41.877 23.7261 40.0366 25.5396C38.1958 27.353 37.6944 28.7827 37.252 30.0444C36.8223 31.269 36.4517 32.3262 34.9204 33.8345C33.3892 35.3433 32.3267 35.6982 31.0962 36.1094C30.1524 36.4248 29.1148 36.772 27.8867 37.6763C28.3355 36.8965 28.7481 35.9131 29.0415 34.5293ZM55.8506 21.9443C55.4214 23.1689 55.0503 24.2266 53.5191 25.7349C51.9878 27.2437 50.9253 27.5986 49.6944 28.0098C48.4268 28.4336 46.9893 28.9141 45.1485 30.7275C43.3081 32.541 42.8067 33.9712 42.3638 35.2329C41.9341 36.457 41.5635 37.5142 40.0327 39.023C38.5015 40.5313 37.439 40.8862 36.2085 41.2974C34.9404 41.7212 33.5029 42.2017 31.6626 44.0152C29.8223 45.8286 29.3203 47.2583 28.8779 48.52C28.4482 49.7442 28.0776 50.8018 26.5469 52.3101C25.9751 52.8736 25.4688 53.2749 24.9946 53.5796C25.0376 53.4097 25.0791 53.2339 25.1177 53.0503C25.6533 50.5225 25.2832 49.0527 24.9565 47.7564C24.8164 47.1983 24.6846 46.6738 24.6201 46.0796C25.0596 45.3057 25.3057 44.606 25.5352 43.9522C25.9648 42.728 26.3355 41.6704 27.8667 40.1621C29.3975 38.6538 30.4605 38.2984 31.6904 37.8872C32.959 37.4634 34.396 36.9834 36.2363 35.1699C38.0767 33.3565 38.5786 31.9263 39.021 30.6646C39.4507 29.4404 39.8213 28.3833 41.3526 26.8745C42.8838 25.3657 43.9463 25.0107 45.1768 24.5996C46.4448 24.1758 47.8823 23.6953 49.7227 21.8818C51.5635 20.0684 52.065 18.6382 52.5078 17.3765C52.8697 16.3457 53.1895 15.4326 54.1963 14.2695L57.9898 18.1196C56.667 19.6177 56.2364 20.8447 55.8506 21.9443Z" fill="black"/>
</g>
<defs>
<clipPath id="clip0">
<rect width="64" height="64" fill="white"/>
</clipPath>
</defs>
</svg>
