<svg width="64" height="64" viewBox="0 0 64 64" fill="none" xmlns="http://www.w3.org/2000/svg">
<g clip-path="url(#clip0)">
<path d="M13.9084 48.102C20.8857 48.102 26.5419 40.8746 26.5419 31.9592C26.5419 23.0438 20.8857 15.8164 13.9084 15.8164C6.9311 15.8164 1.27489 23.0438 1.27489 31.9592C1.27489 40.8746 6.9311 48.102 13.9084 48.102Z" fill="#353635"/>
<path d="M14.002 24.9553C16.3794 24.9553 18.3067 23.7402 18.3067 22.2414C18.3067 20.7426 16.3794 19.5275 14.002 19.5275C11.6245 19.5275 9.69727 20.7426 9.69727 22.2414C9.69727 23.7402 11.6245 24.9553 14.002 24.9553Z" fill="#464545"/>
<path d="M46.5823 48.1836C55.4977 48.1836 62.7251 42.5274 62.7251 35.5501C62.7251 28.5728 55.4977 22.9166 46.5823 22.9166C37.6669 22.9166 30.4395 28.5728 30.4395 35.5501C30.4395 42.5274 37.6669 48.1836 46.5823 48.1836Z" fill="#353635"/>
<path d="M36.8271 39.7612C38.326 39.7612 39.541 37.8339 39.541 35.4565C39.541 33.0791 38.326 31.1518 36.8271 31.1518C35.3283 31.1518 34.1133 33.0791 34.1133 35.4565C34.1133 37.8339 35.3283 39.7612 36.8271 39.7612Z" fill="#464545"/>
<path d="M13.9084 14.5415C10.1333 14.5415 6.60424 16.3944 3.97119 19.7588C1.41029 23.0309 0 27.3638 0 31.9592C0 36.5546 1.41029 40.8874 3.97119 44.1596C6.60424 47.5241 10.1333 49.3769 13.9084 49.3769C17.6835 49.3769 21.2126 47.5239 23.8456 44.1596C26.4065 40.8874 27.8168 36.5546 27.8168 31.9592C27.8168 27.3639 26.4065 23.0311 23.8456 19.7589C21.2126 16.3944 17.6835 14.5415 13.9084 14.5415ZM13.9084 46.8271C7.6452 46.8271 2.5498 40.1573 2.5498 31.9592C2.5498 23.7611 7.6452 17.0913 13.9084 17.0913C20.1716 17.0913 25.267 23.7609 25.267 31.9592C25.267 40.1573 20.1715 46.8271 13.9084 46.8271Z" fill="black"/>
<path d="M5.57616 35.1284C6.2757 35.049 6.77852 34.4176 6.69922 33.718C6.64173 33.2107 6.61253 32.6913 6.61253 32.1744C6.61253 31.4702 6.04176 30.8995 5.33763 30.8995C4.6335 30.8995 4.06273 31.4702 4.06273 32.1744C4.06273 32.787 4.09741 33.403 4.16574 34.0055C4.23956 34.6562 4.79108 35.1369 5.43095 35.1369C5.47889 35.1367 5.52734 35.1341 5.57616 35.1284Z" fill="black"/>
<path d="M14.4621 42.5585C11.6718 42.5585 9.0648 40.5587 7.65808 37.3394C7.3762 36.6942 6.6249 36.3997 5.97942 36.6816C5.33419 36.9634 5.03969 37.7151 5.32157 38.3602C7.14034 42.5225 10.6427 45.1081 14.4621 45.1081C15.1662 45.1081 15.737 44.5374 15.737 43.8332C15.737 43.1291 15.1661 42.5585 14.4621 42.5585Z" fill="black"/>
<path d="M14.002 18.2526C10.8732 18.2526 8.42238 20.0047 8.42238 22.2414C8.42238 24.4781 10.8732 26.2302 14.002 26.2302C17.1307 26.2302 19.5816 24.4781 19.5816 22.2414C19.5816 20.0047 17.1307 18.2526 14.002 18.2526ZM14.002 23.6803C12.1805 23.6803 10.9722 22.8142 10.9722 22.2413C10.9722 21.6683 12.1807 20.8023 14.002 20.8023C15.8233 20.8023 17.0318 21.6683 17.0318 22.2413C17.0318 22.8142 15.8233 23.6803 14.002 23.6803Z" fill="black"/>
<path d="M58.7827 25.6129C55.5105 23.052 51.1777 21.6417 46.5823 21.6417C41.9869 21.6417 37.6542 23.052 34.3819 25.6129C31.0174 28.2459 29.1646 31.775 29.1646 35.5501C29.1646 39.3252 31.0174 42.8542 34.3819 45.4873C37.6542 48.0482 41.9869 49.4585 46.5823 49.4585C51.1777 49.4585 55.5105 48.0482 58.7827 45.4873C62.1472 42.8542 64 39.3252 64 35.5501C64 31.775 62.1472 28.2459 58.7827 25.6129ZM46.5823 46.9087C38.3842 46.9087 31.7144 41.8133 31.7144 35.5501C31.7144 29.2869 38.3841 24.1915 46.5823 24.1915C54.7806 24.1915 61.4502 29.287 61.4502 35.5501C61.4502 41.8132 54.7806 46.9087 46.5823 46.9087Z" fill="black"/>
<path d="M36.8271 29.8769C34.5905 29.8769 32.8384 32.3278 32.8384 35.4566C32.8384 38.5854 34.5905 41.0362 36.8271 41.0362C39.0638 41.0362 40.8159 38.5854 40.8159 35.4566C40.8159 32.3278 39.0638 29.8769 36.8271 29.8769ZM36.8271 38.4863C36.2543 38.4863 35.3882 37.2778 35.3882 35.4565C35.3882 33.635 36.2542 32.4266 36.8271 32.4266C37.4001 32.4266 38.2661 33.635 38.2661 35.4565C38.2661 37.2779 37.4 38.4863 36.8271 38.4863Z" fill="black"/>
</g>
<defs>
<clipPath id="clip0">
<rect width="64" height="64" fill="white"/>
</clipPath>
</defs>
</svg>
