<svg width="64" height="64" viewBox="0 0 64 64" fill="none" xmlns="http://www.w3.org/2000/svg">
<path d="M63.0625 21.9798L31.6338 7.09226C29.7155 6.18951 27.5883 5.81838 25.475 5.98713C7.16212 7.44938 0.9375 20.3243 0.9375 25.9879H63.0625V21.9798Z" fill="#FFF082"/>
<path d="M62.2315 39.1002C62.7079 38.9999 63.0625 38.604 63.0625 38.1172V21.9798H4.94562C2.732 21.9798 0.9375 23.7743 0.9375 25.9879V54.0444C0.9375 56.2579 2.732 58.0525 4.94562 58.0525H25.3353C25.7564 58.0525 26.1318 57.7882 26.2715 57.3911C26.9574 55.4419 28.8142 54.0445 30.998 54.0445C33.1819 54.0445 35.0386 55.4419 35.7245 57.3911C35.8643 57.7884 36.2396 58.0525 36.6608 58.0525H62.0604C62.6138 58.0525 63.0624 57.6039 63.0624 57.0505V47.9271C63.0624 47.4402 62.7078 47.0445 62.2314 46.944C60.4165 46.5614 59.0542 44.9509 59.0542 43.0222C59.0544 41.0934 60.4166 39.4829 62.2315 39.1002Z" fill="#FFDC64"/>
<path d="M52.04 34.0037C53.1466 34.0037 54.0438 33.1066 54.0438 32C54.0438 30.8934 53.1466 29.9962 52.04 29.9962C50.9334 29.9962 50.0363 30.8934 50.0363 32C50.0363 33.1066 50.9334 34.0037 52.04 34.0037Z" fill="#E1A546"/>
<path d="M25.9875 48.0325C27.0941 48.0325 27.9912 47.1354 27.9912 46.0287C27.9912 44.9221 27.0941 44.025 25.9875 44.025C24.8809 44.025 23.9837 44.9221 23.9837 46.0287C23.9837 47.1354 24.8809 48.0325 25.9875 48.0325Z" fill="#E1A546"/>
<path d="M10.9575 52.04C12.6178 52.04 13.9638 50.6941 13.9638 49.0337C13.9638 47.3734 12.6178 46.0275 10.9575 46.0275C9.29721 46.0275 7.95126 47.3734 7.95126 49.0337C7.95126 50.6941 9.29721 52.04 10.9575 52.04Z" fill="#FFC850"/>
<path d="M10.9576 46.0281C9.738 46.0281 8.69313 46.7576 8.22188 47.8014C8.59888 47.6311 9.01413 47.5311 9.45463 47.5311C11.1149 47.5311 12.4606 48.877 12.4606 50.5371C12.4606 50.9776 12.3606 51.3929 12.1904 51.7699C13.2341 51.2985 13.9636 50.2537 13.9636 49.0341C13.9638 47.374 12.6179 46.0281 10.9576 46.0281Z" fill="#E1A546"/>
<path d="M37.01 33.0025C38.6703 33.0025 40.0163 31.6566 40.0163 29.9963C40.0163 28.3359 38.6703 26.99 37.01 26.99C35.3497 26.99 34.0038 28.3359 34.0038 29.9963C34.0038 31.6566 35.3497 33.0025 37.01 33.0025Z" fill="#FFC850"/>
<path d="M37.0101 26.9899C35.7905 26.9899 34.7456 27.7194 34.2744 28.7631C34.6514 28.5929 35.0666 28.4929 35.5071 28.4929C37.1674 28.4929 38.5131 29.8388 38.5131 31.4989C38.5131 31.9394 38.4131 32.3546 38.2429 32.7316C39.2866 32.2603 40.0161 31.2155 40.0161 29.9959C40.0161 28.3358 38.6702 26.9899 37.0101 26.9899Z" fill="#E1A546"/>
<path d="M16.97 39.0137C19.7369 39.0137 21.98 36.7707 21.98 34.0037C21.98 31.2368 19.7369 28.9937 16.97 28.9937C14.2031 28.9937 11.96 31.2368 11.96 34.0037C11.96 36.7707 14.2031 39.0137 16.97 39.0137Z" fill="#FFC850"/>
<path d="M16.9697 28.9939C15.069 28.9939 13.4354 30.0649 12.5864 31.6246C13.2971 31.2377 14.0995 30.9979 14.9657 30.9979C17.7327 30.9979 19.9759 33.241 19.9759 36.008C19.9759 36.8741 19.7361 37.6766 19.3491 38.3874C20.9089 37.5384 21.9799 35.9047 21.9799 34.004C21.9799 31.237 19.7367 28.9939 16.9697 28.9939Z" fill="#E1A546"/>
<path d="M44.0238 51.0388C46.7907 51.0388 49.0337 48.7957 49.0337 46.0288C49.0337 43.2618 46.7907 41.0188 44.0238 41.0188C41.2568 41.0188 39.0137 43.2618 39.0137 46.0288C39.0137 48.7957 41.2568 51.0388 44.0238 51.0388Z" fill="#FFC850"/>
<path d="M44.0242 41.0181C42.1235 41.0181 40.4899 42.0891 39.6409 43.6489C40.3516 43.262 41.154 43.0223 42.0202 43.0223C44.7872 43.0223 47.0304 45.2654 47.0304 48.0324C47.0304 48.8985 46.7906 49.701 46.4036 50.4118C47.9634 49.5628 49.0344 47.9291 49.0344 46.0284C49.0342 43.2613 46.7911 41.0181 44.0242 41.0181Z" fill="#E1A546"/>
<path d="M0.9375 26.9899C3.15112 26.9899 4.94562 28.7844 4.94562 30.9979V49.0341C4.94562 52.3545 7.63738 55.0463 10.9578 55.0463H24.485C25.3151 55.0463 25.988 55.7191 25.988 56.5493C25.988 57.3794 25.3151 58.0523 24.485 58.0523H4.94562C2.732 58.0523 0.9375 56.2578 0.9375 54.0441V26.9899Z" fill="#FFC850"/>
<path d="M48.7474 44.1074C48.24 44.2104 47.9121 44.7053 48.0152 45.2128C48.0694 45.4791 48.0967 45.7535 48.0967 46.0281C48.0967 48.2738 46.2697 50.1008 44.0241 50.1008C41.7785 50.1008 39.9515 48.2738 39.9515 46.0281C39.9515 43.7825 41.7785 41.9555 44.0241 41.9555C44.5907 41.9555 45.1387 42.0694 45.6527 42.294C46.1272 42.5011 46.6799 42.2846 46.8871 41.8101C47.0944 41.3356 46.8777 40.783 46.4032 40.5758C45.651 40.2473 44.8506 40.0806 44.024 40.0806C40.7445 40.0806 38.0764 42.7488 38.0764 46.0283C38.0764 49.3078 40.7445 51.9759 44.024 51.9759C47.3035 51.9759 49.9716 49.3078 49.9716 46.0283C49.9716 45.6285 49.9316 45.2286 49.8526 44.8396C49.7497 44.3321 49.2552 44.0048 48.7474 44.1074Z" fill="black"/>
<path d="M21.6933 32.0831C21.1858 32.1861 20.8579 32.6809 20.9609 33.1883C21.015 33.4549 21.0424 33.7294 21.0424 34.004C21.0424 36.2496 19.2154 38.0766 16.9698 38.0766C14.7241 38.0766 12.8971 36.2496 12.8971 34.004C12.8971 31.7584 14.7241 29.9314 16.9698 29.9314C17.5364 29.9314 18.0843 30.0453 18.5983 30.2699C19.0728 30.4771 19.6254 30.2605 19.8326 29.786C20.0399 29.3115 19.8233 28.7589 19.3488 28.5516C18.5965 28.2231 17.7961 28.0565 16.9696 28.0565C13.6901 28.0565 11.022 30.7246 11.022 34.0041C11.022 37.2836 13.6901 39.9518 16.9696 39.9518C20.2491 39.9518 22.9173 37.2836 22.9173 34.0041C22.9173 33.6046 22.8773 33.2048 22.7984 32.8158C22.6955 32.3081 22.2004 31.9803 21.6933 32.0831Z" fill="black"/>
<path d="M40.9536 29.9959C40.9536 29.4781 40.5339 29.0584 40.0161 29.0584C39.4984 29.0584 39.0786 29.4781 39.0786 29.9959C39.0786 31.1365 38.1507 32.0644 37.0101 32.0644C35.8695 32.0644 34.9416 31.1365 34.9416 29.9959C34.9416 28.8553 35.8695 27.9274 37.0101 27.9274C37.5279 27.9274 37.9476 27.5076 37.9476 26.9899C37.9476 26.4721 37.5279 26.0524 37.0101 26.0524C34.8356 26.0524 33.0666 27.8214 33.0666 29.9959C33.0666 32.1704 34.8356 33.9394 37.0101 33.9394C39.1846 33.9394 40.9536 32.1704 40.9536 29.9959Z" fill="black"/>
<path d="M52.0404 29.0584C50.4184 29.0584 49.0989 30.378 49.0989 31.9999C49.0989 33.6218 50.4185 34.9414 52.0404 34.9414C53.6623 34.9414 54.9819 33.6218 54.9819 31.9999C54.9819 30.378 53.6623 29.0584 52.0404 29.0584ZM52.0404 33.0665C51.4522 33.0665 50.9739 32.588 50.9739 32C50.9739 31.412 51.4524 30.9335 52.0404 30.9335C52.6284 30.9335 53.1069 31.412 53.1069 32C53.1069 32.588 52.6284 33.0665 52.0404 33.0665Z" fill="black"/>
<path d="M10.9576 45.0906C8.78312 45.0906 7.01411 46.8597 7.01411 49.0342C7.01411 51.2087 8.78312 52.9777 10.9576 52.9777C13.1321 52.9777 14.9011 51.2087 14.9011 49.0342C14.9011 46.8597 13.1321 45.0906 10.9576 45.0906ZM10.9576 51.1027C9.81699 51.1027 8.88911 50.1749 8.88911 49.0342C8.88911 47.8936 9.81699 46.9656 10.9576 46.9656C12.0982 46.9656 13.0261 47.8936 13.0261 49.0342C13.0261 50.1749 12.0982 51.1027 10.9576 51.1027Z" fill="black"/>
<path d="M25.9879 43.0866C24.3659 43.0866 23.0464 44.4063 23.0464 46.0281C23.0464 47.6501 24.366 48.9697 25.9879 48.9697C27.6097 48.9697 28.9294 47.6501 28.9294 46.0281C28.9295 44.4063 27.6099 43.0866 25.9879 43.0866ZM25.9879 47.0947C25.3997 47.0947 24.9214 46.6163 24.9214 46.0281C24.9214 45.44 25.3999 44.9616 25.9879 44.9616C26.5759 44.9616 27.0544 45.4401 27.0544 46.0281C27.0545 46.6163 26.576 47.0947 25.9879 47.0947Z" fill="black"/>
<path d="M62.4249 40.0176C63.3522 39.8221 64 39.0406 64 38.1171V21.9799C64 21.6058 63.7804 21.2839 63.4635 21.1334L63.4639 21.1326L32.033 6.244C29.9875 5.28138 27.6941 4.86913 25.4004 5.05263C15.0496 5.879 8.94925 10.2501 5.65438 13.7714C1.48088 18.2316 0 23.14 0 25.9879V54.0444C0 56.7714 2.21862 58.9899 4.9455 58.9899H25.3351C26.153 58.9899 26.8846 58.4724 27.1556 57.7021C27.7281 56.075 29.2723 54.9819 30.9979 54.9819C32.7235 54.9819 34.2675 56.0751 34.8401 57.7021C35.1111 58.4724 35.8428 58.9899 36.6606 58.9899H62.0604C63.1299 58.9899 63.9999 58.1199 63.9999 57.0504V47.927C63.9999 47.0036 63.3521 46.2221 62.4248 46.0265C61.015 45.7294 59.9917 44.4658 59.9917 43.022C59.9917 41.5783 61.0151 40.3149 62.4249 40.0176ZM62.0381 47.8613C62.0809 47.8703 62.125 47.8974 62.125 47.927V57.0504C62.125 57.086 62.0961 57.1149 62.0605 57.1149H36.6608C36.6368 57.1149 36.6164 57.1011 36.6089 57.0798C35.7728 54.7034 33.5179 53.1068 30.998 53.1068C28.478 53.1068 26.2232 54.7034 25.3871 57.0798C25.3796 57.101 25.3593 57.1149 25.3353 57.1149H4.9455C3.2525 57.1149 1.875 55.7375 1.875 54.0444V25.9879C1.875 24.2948 3.2525 22.9174 4.9455 22.9174H49.0341C49.5519 22.9174 49.9716 22.4976 49.9716 21.9799C49.9716 21.4621 49.5519 21.0424 49.0341 21.0424H4.9455C4.20425 21.0424 3.50125 21.2074 2.8695 21.5009C3.85562 19.0778 5.4435 16.7411 7.02338 15.0526C10.092 11.7731 15.797 7.7005 25.5496 6.92175C27.5181 6.7645 29.4841 7.11688 31.2324 7.93963L58.8935 21.0424H53.0419C52.5241 21.0424 52.1044 21.4621 52.1044 21.9799C52.1044 22.4976 52.5241 22.9174 53.0419 22.9174H62.125V38.1173C62.125 38.147 62.0809 38.174 62.0381 38.183C59.7661 38.6621 58.117 40.6973 58.117 43.0221C58.117 45.347 59.766 47.3823 62.0381 47.8613Z" fill="black"/>
</svg>
