<svg width="64" height="64" viewBox="0 0 64 64" fill="none" xmlns="http://www.w3.org/2000/svg">
<path d="M34.0088 24.2338C33.9033 24.1973 33.8048 24.1432 33.7175 24.0738C29.8813 20.8113 30.9775 14.755 31.205 13.35C31.91 8.99875 28.0138 4.22625 23.915 2.27875C28.4125 4.30125 31.4313 8.63375 36.305 10.8325C39.2463 12.16 43.875 12.2313 46.5813 17.6375L44.9363 19.9763L42.2775 19.4475L41.2188 22.125L38.32 21.5125L37.4263 24.3475C37.4263 24.3475 35.025 24.6113 34.0113 24.235C34.01 24.2338 34.01 24.2338 34.0088 24.2338Z" fill="#39591B"/>
<path d="M28.325 5.62062C28.2066 5.35396 28.0797 5.09037 27.9444 4.82987C26.6811 3.8375 25.3763 2.93587 23.915 2.27875C25.5871 3.09736 27.0847 4.23224 28.325 5.62062Z" fill="#5C8431"/>
<path d="M36.305 10.8325C33.4756 9.556 31.2714 7.56075 29.04 5.7155C30.5875 7.89487 32.1375 10.1453 34.3543 11.9425C36.6455 13.8009 40.5668 15.005 42.17 19.7194L42.2775 19.4475L44.9363 19.9762L46.5813 17.6375C43.875 12.2313 39.2463 12.16 36.305 10.8325Z" fill="#5C8431"/>
<path d="M46.5813 17.6375C61.3375 35.705 53.8675 55.4613 39.9575 61.0588C28.7788 65.5563 13.255 60.05 9.35751 48.6488C14.6925 56.96 27.6888 59.2225 36 53.8875C44.3113 48.5525 45.0363 38.7188 39.7013 30.4063C38.2938 28.215 36.0913 25.6363 34.0113 24.235C35.025 24.6113 37.4263 24.3475 37.4263 24.3475L38.32 21.5125L41.2188 22.125L42.2775 19.4475L44.9363 19.9763L46.5813 17.6375Z" fill="#689B2D"/>
<path d="M46.5813 17.6375L44.9363 19.9763L42.4578 19.4834C52.6724 36.1959 45.3344 53.214 32.5884 58.3431C28.3276 60.0574 23.436 60.3169 18.7971 59.352C25.1544 62.8731 33.3221 63.7286 39.9575 61.0588C53.8675 55.4613 61.3375 35.705 46.5813 17.6375Z" fill="#89C140"/>
<path d="M35.5952 53.2565C31.7555 55.7212 26.6919 56.5932 21.7021 55.6487C16.6675 54.6959 12.3982 51.9969 9.98961 48.2432C9.89062 48.089 9.73856 47.9763 9.56215 47.9265C9.38573 47.8767 9.19719 47.8932 9.03213 47.9729C8.86707 48.0527 8.73693 48.1901 8.66629 48.3592C8.59565 48.5284 8.58941 48.7175 8.64874 48.891C10.404 54.027 14.507 58.2919 20.2019 60.9001C23.7468 62.5238 27.5984 63.3691 31.4975 63.3791C34.5516 63.3791 37.5377 62.8404 40.2381 61.7541C47.2299 58.9416 52.5815 52.6821 54.5542 45.0114C55.6737 40.6577 55.6792 36.1246 54.5711 31.5379C53.3692 26.5629 50.8929 21.748 47.2116 17.2254C44.9866 12.8481 41.5539 11.7774 38.7916 10.9174C38.0513 10.7043 37.3242 10.4481 36.6139 10.15C34.2239 9.07137 32.2491 7.4195 30.3389 5.82187C28.4561 4.24687 26.5099 2.61875 24.1994 1.58437C22.9986 1.01925 21.8045 0.693498 20.7074 0.635623C19.2009 0.555748 17.8755 0.982748 16.8739 1.86937C15.9472 2.68962 15.2811 4.61575 15.7767 5.96587C15.9809 6.52187 16.5581 7.45962 18.132 7.49275H18.148C18.3469 7.4948 18.5385 7.41776 18.6806 7.27856C18.8227 7.13936 18.9037 6.94941 18.9057 6.7505C18.9078 6.55158 18.8307 6.36 18.6915 6.2179C18.5523 6.07579 18.3624 5.9948 18.1635 5.99275C17.4676 5.97812 17.275 5.69425 17.1849 5.44862C16.9206 4.72875 17.3459 3.4545 17.868 2.99212C19.1366 1.86925 21.199 1.8485 23.4829 2.90462C23.5009 2.91437 23.5192 2.9235 23.5382 2.93187L23.5915 2.95562C23.7937 3.05171 23.9974 3.15621 24.2024 3.26912C26.106 4.33665 27.7331 5.83532 28.9531 7.645C30.558 10.066 30.661 12.0182 30.4649 13.2299L30.4475 13.3359C29.595 18.5445 30.5316 22.3497 33.2315 24.6456C33.3507 24.7429 33.4837 24.822 33.6261 24.8804C35.0357 25.8479 37.1985 27.8964 39.0695 30.8116C41.632 34.8037 42.7525 39.1907 42.2247 43.1646C41.6705 47.3387 39.378 50.8285 35.5952 53.2565ZM34.3647 23.569C34.2911 23.5201 34.2174 23.4724 34.1436 23.426C34.1201 23.4114 34.0959 23.398 34.071 23.386C31.903 21.438 31.1812 18.1405 31.9279 13.5786L31.9455 13.47C32.2236 11.7527 31.858 10.0054 31.083 8.37737C32.5636 9.55937 34.1455 10.6815 35.9966 11.517C36.7621 11.8413 37.5465 12.1192 38.3454 12.3492C40.8914 13.142 43.7652 14.0367 45.7045 17.5807L44.6037 19.1457L42.424 18.7122C42.2518 18.678 42.0731 18.7053 41.9189 18.7893C41.7647 18.8733 41.6449 19.0087 41.5804 19.172L40.754 21.2606L38.475 20.779C38.2927 20.7405 38.1026 20.7712 37.9417 20.8652C37.7809 20.9592 37.6607 21.1097 37.6047 21.2874L36.8614 23.646C35.8242 23.7229 34.7954 23.6895 34.3647 23.5685V23.569ZM40.3319 30.0019C39.1962 28.2479 37.8627 26.6304 36.3575 25.1811C36.8114 25.162 37.22 25.1251 37.5082 25.0936C37.6529 25.0778 37.7899 25.0201 37.9024 24.9278C38.0149 24.8354 38.0981 24.7123 38.1419 24.5735L38.8307 22.3879L41.0636 22.8591C41.2369 22.8957 41.4175 22.8698 41.5734 22.786C41.7294 22.7022 41.8507 22.5659 41.9159 22.4012L42.7449 20.3056L44.79 20.7122C44.9325 20.7406 45.0801 20.7269 45.215 20.6729C45.3499 20.6189 45.4662 20.5269 45.5497 20.4081L46.6186 18.8885C52.9787 27.0525 55.2811 36.1622 53.101 44.6385C51.2467 51.8492 46.2286 57.7276 39.6779 60.3635C33.9951 62.65 26.9476 62.3414 20.826 59.5376C17.5135 58.0207 14.7826 55.915 12.8017 53.3961C15.2184 55.2131 18.1767 56.5094 21.4232 57.1239C26.7857 58.139 32.2464 57.1897 36.4055 54.5201C40.5711 51.8464 43.0975 47.9884 43.7116 43.3632C44.286 39.0367 43.0857 34.2917 40.3319 30.0014V30.0019Z" fill="#151515"/>
<path d="M49.8096 47.7175C49.9018 47.7521 50 47.7682 50.0985 47.7648C50.1969 47.7614 50.2937 47.7387 50.3834 47.6978C50.473 47.6569 50.5537 47.5988 50.6209 47.5267C50.688 47.4546 50.7402 47.3699 50.7746 47.2776C50.9211 46.8859 51.0597 46.4862 51.1871 46.0901C51.5962 44.8092 51.908 43.4992 52.12 42.1714C52.4126 40.3244 52.5187 38.4527 52.4366 36.5845C52.4335 36.4853 52.4108 36.3876 52.3698 36.2973C52.3287 36.2069 52.2701 36.1256 52.1974 36.058C52.1246 35.9905 52.0392 35.938 51.9461 35.9037C51.8529 35.8694 51.7539 35.854 51.6547 35.8582C51.5555 35.8625 51.4582 35.8864 51.3683 35.9286C51.2785 35.9708 51.1979 36.0304 51.1312 36.1039C51.0646 36.1775 51.0132 36.2635 50.98 36.3571C50.9469 36.4506 50.9326 36.5499 50.9381 36.649C51.0158 38.4165 50.9155 40.1874 50.6387 41.9349C50.4388 43.188 50.1445 44.4242 49.7584 45.633C49.6387 46.0067 49.5084 46.383 49.3701 46.753C49.3006 46.9392 49.3079 47.1453 49.3903 47.3262C49.4727 47.507 49.6235 47.6477 49.8096 47.7175Z" fill="#151515"/>
<path d="M47.1842 52.549C47.3507 52.6576 47.5535 52.6956 47.7481 52.6548C47.9426 52.6139 48.113 52.4975 48.2217 52.3311C48.5426 51.8401 48.8506 51.3311 49.1374 50.8167C49.2332 50.6431 49.2563 50.4386 49.2017 50.248C49.1472 50.0573 49.0193 49.896 48.8461 49.7994C48.673 49.7028 48.4686 49.6787 48.2777 49.7323C48.0868 49.786 47.9249 49.9131 47.8275 50.0859C47.5576 50.5694 47.2677 51.0484 46.9659 51.5109C46.912 51.5934 46.875 51.6857 46.8568 51.7825C46.8386 51.8793 46.8397 51.9788 46.86 52.0752C46.8803 52.1716 46.9193 52.263 46.975 52.3443C47.0306 52.4256 47.1017 52.4952 47.1842 52.549Z" fill="#151515"/>
</svg>
