<svg width="64" height="64" viewBox="0 0 64 64" fill="none" xmlns="http://www.w3.org/2000/svg">
<path d="M56.3224 4.33318C49.6876 -0.213714 42.7977 0.852328 37.5703 2.10471C32.3429 3.35723 25.6772 5.53901 21.3946 12.7017C19.0234 16.6677 20.0224 22.1169 23.6849 24.6542C26.9202 26.8955 31.095 26.2096 33.6007 23.2249C33.8959 22.8734 34.4331 23.039 34.5268 23.5047L36.5713 33.6827C36.8683 35.1613 38.2067 36.097 39.5605 35.7725L48.6685 33.5903C50.0224 33.2659 50.8791 31.8043 50.582 30.3257L48.5375 20.1477C48.4439 19.6819 48.8684 19.2859 49.271 19.4703C52.6908 21.0353 56.7449 19.7496 58.8241 16.2351C61.1777 12.2563 59.9961 6.85092 56.3224 4.33318Z" fill="#F3E5B7"/>
<path d="M56.3224 4.33318C49.6876 -0.213714 42.7977 0.852328 37.5703 2.10471C32.3429 3.35723 25.6772 5.53901 21.3946 12.7017C19.0234 16.6677 20.0224 22.1169 23.6849 24.6542C26.9202 26.8955 31.095 26.2096 33.6007 23.2249C33.8959 22.8734 34.4331 23.039 34.5268 23.5047L36.5713 33.6827C36.8683 35.1613 38.2067 36.097 39.5605 35.7725L48.6685 33.5903C50.0224 33.2659 50.8791 31.8043 50.582 30.3257L48.5375 20.1477C48.4439 19.6819 48.8684 19.2859 49.271 19.4703C52.6908 21.0353 56.7449 19.7496 58.8241 16.2351C61.1777 12.2563 59.9961 6.85092 56.3224 4.33318Z" fill="#F3E5B7"/>
<path opacity="0.15" d="M50.5821 30.3258L49.9325 27.0918C47.503 26.6467 45.0968 26.5318 42.8141 26.5318C42.3626 26.5318 41.9054 26.537 41.4451 26.5475C39.4394 22.457 36.7285 19.5911 33.7654 17.4693C32.1702 16.3271 31.1 14.4845 30.8805 12.4154C30.5667 9.45847 31.1165 6.24424 31.9162 3.854C28.1286 5.39566 24.2784 7.93019 21.4505 12.6092C19.0181 16.6338 19.9721 22.1026 23.7093 24.671C26.9387 26.8904 31.0948 26.2034 33.5951 23.232C33.8932 22.8776 34.4325 23.0347 34.527 23.5047L36.5715 33.6827C36.8685 35.1613 38.2069 36.097 39.5608 35.7725L48.6687 33.5903C50.0224 33.2659 50.8791 31.8044 50.5821 30.3258Z" fill="black"/>
<path d="M39.2595 28.6677C35.7875 20.9995 29.4066 17.9673 24.3528 16.0449C19.299 14.1223 12.5739 12.169 5.49111 15.8218C1.5692 17.8444 -0.192692 23.0582 1.71082 27.3142C3.39234 31.0738 7.27775 32.8771 10.8437 31.7674C11.2635 31.6368 11.642 32.0849 11.4983 32.5353L8.35975 42.3754C7.90388 43.805 8.59526 45.3674 9.90427 45.8654L18.71 49.2152C20.019 49.7131 21.4496 48.958 21.9056 47.5284L25.0441 37.6883C25.1878 37.2381 25.7392 37.1435 25.994 37.5308C28.1569 40.8198 32.2273 42.0431 35.6839 40.238C39.5966 38.1945 41.1819 32.9136 39.2595 28.6677Z" fill="#F3E5B7"/>
<path d="M60.6932 36.1904C55.1048 30.1963 48.1656 29.6251 42.8141 29.6251C37.4625 29.6251 30.5234 30.1963 24.9349 36.1904C21.8405 39.5093 21.7472 45.0658 24.8267 48.4012C27.5471 51.3476 31.7594 51.6546 34.7926 49.3256C35.1498 49.0514 35.6422 49.3388 35.6422 49.8156V60.2358C35.6422 61.7496 36.7658 62.9767 38.1519 62.9767H47.4765C48.8626 62.9767 49.9863 61.7496 49.9863 60.2358V49.8156C49.9863 49.3388 50.4785 49.0514 50.8358 49.3256C53.8691 51.6546 58.0813 51.3476 60.8017 48.4012C63.881 45.0658 63.7876 39.5094 60.6932 36.1904Z" fill="#F3E5B7"/>
<g opacity="0.1">
<path opacity="0.1" d="M45.552 24.6651C46.0491 24.6651 46.4521 24.225 46.4521 23.682C46.4521 23.1391 46.0491 22.699 45.552 22.699C45.0548 22.699 44.6518 23.1391 44.6518 23.682C44.6518 24.225 45.0548 24.6651 45.552 24.6651Z" fill="black"/>
<path opacity="0.1" d="M53.2578 9.63796C53.7549 9.63796 54.1579 9.19783 54.1579 8.65492C54.1579 8.112 53.7549 7.67188 53.2578 7.67188C52.7607 7.67188 52.3577 8.112 52.3577 8.65492C52.3577 9.19783 52.7607 9.63796 53.2578 9.63796Z" fill="black"/>
<path opacity="0.1" d="M58.4307 41.8263C58.9278 41.8263 59.3308 41.3862 59.3308 40.8433C59.3308 40.3004 58.9278 39.8602 58.4307 39.8602C57.9335 39.8602 57.5305 40.3004 57.5305 40.8433C57.5305 41.3862 57.9335 41.8263 58.4307 41.8263Z" fill="black"/>
<path opacity="0.1" d="M40.5928 56.768C41.09 56.768 41.4931 56.3278 41.4931 55.7848C41.4931 55.2418 41.09 54.8016 40.5928 54.8016C40.0956 54.8016 39.6925 55.2418 39.6925 55.7848C39.6925 56.3278 40.0956 56.768 40.5928 56.768Z" fill="black"/>
<path opacity="0.1" d="M15.0853 39.8713C15.5825 39.8713 15.9855 39.4312 15.9855 38.8883C15.9855 38.3453 15.5825 37.9052 15.0853 37.9052C14.5882 37.9052 14.1852 38.3453 14.1852 38.8883C14.1852 39.4312 14.5882 39.8713 15.0853 39.8713Z" fill="black"/>
<path opacity="0.1" d="M27.0991 23.6822C27.5963 23.6822 27.9993 23.242 27.9993 22.699C27.9993 22.156 27.5963 21.7158 27.0991 21.7158C26.6019 21.7158 26.1988 22.156 26.1988 22.699C26.1988 23.242 26.6019 23.6822 27.0991 23.6822Z" fill="black"/>
<path opacity="0.1" d="M34.6822 9.63811C35.1794 9.63811 35.5825 9.19793 35.5825 8.65493C35.5825 8.11194 35.1794 7.67175 34.6822 7.67175C34.185 7.67175 33.782 8.11194 33.782 8.65493C33.782 9.19793 34.185 9.63811 34.6822 9.63811Z" fill="black"/>
</g>
<path d="M61.3498 35.4599C58.2852 32.1727 54.8469 30.4343 51.382 29.5306L49.6075 20.6973C53.3368 22.0119 57.4488 20.4465 59.6113 16.7907C61.3473 13.8562 61.4393 10.0912 59.8517 6.96503C59.6004 6.47044 59.0298 6.29188 58.5771 6.56628C58.1243 6.84053 57.9608 7.46386 58.2119 7.95831C59.4633 10.4224 59.3961 13.3808 58.0363 15.6794C56.2313 18.7311 52.6973 19.9282 49.6331 18.526C49.125 18.2934 48.5453 18.389 48.1211 18.7755C47.6937 19.1647 47.5023 19.7746 47.6213 20.3672L49.3746 29.0949C47.1396 28.7029 44.9216 28.6012 42.8137 28.6012C41.9865 28.6012 41.1422 28.6177 40.2867 28.6602C40.2268 28.5079 40.1649 28.3582 40.0997 28.2139C38.4809 24.6386 36.2696 22.0235 33.8001 20.0304C34.9721 18.24 36.587 17.0434 40.3882 16.1327C43.7436 15.3287 46.0514 15.2591 48.6332 17.1889C49.215 17.6237 49.9437 17.7784 50.6326 17.6133C51.2729 17.4599 51.8298 17.0499 52.2003 16.4587C52.9995 15.1833 52.6994 13.4357 51.5319 12.5631C48.0041 9.92604 44.5716 9.39172 39.2883 10.6576C34.3781 11.8341 31.5187 13.6908 29.3782 17.1628C27.8069 16.3403 26.2117 15.6678 24.6609 15.078C23.7235 14.7214 22.7564 14.3774 21.7626 14.0675C21.8871 13.7894 22.0252 13.5195 22.1795 13.2614C24.3954 9.5554 27.9804 5.45054 37.7711 3.10468C43.1329 1.82007 49.4242 1.03375 55.4339 4.94011C55.8789 5.22925 56.4543 5.06967 56.719 4.58395C56.9839 4.09796 56.8379 3.46958 56.393 3.1803C49.8217 -1.09083 43.0891 -0.26587 37.3693 1.10446C31.5048 2.50961 24.9273 4.91964 20.6094 12.1418C20.3436 12.5863 20.112 13.0558 19.9166 13.5446C15.3668 12.3938 10.3317 12.193 5.09061 14.896C2.96297 15.9933 1.29133 18.0263 0.504696 20.4737C-0.27656 22.9039 -0.147309 25.4928 0.868199 27.7636C2.61746 31.6744 6.5295 33.7627 10.3758 32.942L7.47425 42.0386C7.17138 42.9884 7.22525 44.0099 7.62601 44.9154C8.02663 45.8209 8.72626 46.5016 9.59577 46.8323L14.6222 48.7445C14.7242 48.7834 14.8282 48.8017 14.9306 48.8017C15.3184 48.8017 15.6813 48.5369 15.8161 48.1143C15.9863 47.5803 15.7281 46.9964 15.2391 46.8105L10.2125 44.8982C9.81602 44.7474 9.49702 44.4369 9.31414 44.0238C9.13139 43.611 9.10689 43.1449 9.24502 42.7119L12.3835 32.8717C12.5662 32.2987 12.4424 31.668 12.0605 31.2263C11.6812 30.7875 11.1163 30.6173 10.5864 30.7823C7.39175 31.7764 4.0131 30.129 2.55296 26.8645C1.75908 25.0898 1.65996 23.0611 2.27384 21.1518C2.89547 19.2176 4.21398 17.6124 5.89087 16.7474C9.5559 14.8575 14.5783 13.4108 24.0439 17.0116C29.2772 19.0023 35.0421 21.965 38.2729 28.8131C35.6222 29.0919 32.9076 29.7066 30.2878 30.9807C28.5487 27.9113 25.996 25.9419 21.715 24.3134C16.6073 22.3703 13.1406 22.4551 9.35064 24.6149C8.09626 25.3298 7.60825 27.0261 8.26264 28.3962C8.91726 29.7661 10.4707 30.2991 11.725 29.5843C13.8647 28.3648 15.8214 28.0071 20.0266 29.6068C22.7294 30.635 24.6088 31.7039 25.8937 33.8939C25.345 34.3722 24.8056 34.8929 24.2774 35.4594C22.5986 37.2599 21.6325 39.7803 21.6267 42.3742C21.6251 43.1282 21.7034 43.8661 21.853 44.5786L21.0197 47.1911C20.7611 48.0024 19.9857 48.4828 19.2184 48.3083C18.7113 48.1931 18.2148 48.5487 18.1096 49.1026C18.0042 49.6561 18.3297 50.1984 18.8366 50.3135C19.0695 50.3663 19.3026 50.3918 19.5329 50.3918C20.971 50.3918 22.3014 49.398 22.7905 47.8648L22.9286 47.4316C23.2765 48.0414 23.6889 48.6114 24.1656 49.1277C26.9957 52.1927 31.3191 52.7593 34.7037 50.6025V60.2352C34.7037 62.311 36.2501 64 38.1509 64H47.4755C49.3762 64 50.9227 62.311 50.9227 60.2352V50.6025C54.3071 52.7594 58.6309 52.1926 61.4608 49.1277C63.1038 47.3481 64.0056 44.9495 64 42.374C63.9946 39.7807 63.0286 37.2602 61.3498 35.4599ZM32.2498 18.8788C31.8568 18.6101 31.4595 18.3542 31.0587 18.1104C32.9021 15.2474 35.4146 13.6824 39.69 12.658C44.4643 11.5141 47.3867 11.9465 50.4727 14.2531C50.7871 14.4882 50.8679 14.9588 50.6527 15.3023C50.5529 15.4614 50.403 15.5719 50.2306 15.6132C50.0422 15.6583 49.851 15.6177 49.692 15.499C46.5776 13.1713 43.6692 13.2503 39.986 14.1326C35.6182 15.1788 33.6387 16.7414 32.2498 18.8788ZM20.6436 27.6733C15.8409 25.8464 13.3384 26.3553 10.8578 27.7692C10.5203 27.9617 10.1015 27.8182 9.92527 27.4493C9.74902 27.0803 9.88052 26.6234 10.2183 26.4308C13.5337 24.5416 16.4823 24.4917 21.0982 26.2477C24.8499 27.6748 27.0975 29.353 28.6024 31.9039C28.2034 32.1484 27.8077 32.4112 27.4155 32.6923C25.8592 30.0903 23.6339 28.8108 20.6436 27.6733ZM60.1409 47.6742C57.7788 50.2326 54.092 50.5749 51.3746 48.4881C50.924 48.1421 50.3394 48.0997 49.8487 48.3778C49.355 48.6578 49.0481 49.2089 49.0481 49.8157V60.2359C49.0481 61.1826 48.3428 61.9528 47.476 61.9528H38.1514C37.2845 61.9528 36.5794 61.1826 36.5794 60.2359V49.8157C36.5794 49.2089 36.2726 48.658 35.7787 48.3778C35.5634 48.2556 35.33 48.1954 35.0977 48.1954C34.8009 48.1954 34.506 48.294 34.253 48.4881C31.5355 50.5747 27.8487 50.2325 25.4865 47.6742C24.6443 46.762 24.0533 45.6387 23.7463 44.4031C23.7401 44.3729 23.7326 44.343 23.724 44.3136C23.5773 43.6925 23.5008 43.0441 23.5023 42.3798C23.5068 40.33 24.2684 38.3403 25.5915 36.9212C26.1669 36.3041 26.7987 35.6843 27.52 35.0872C27.5299 35.082 27.54 35.0783 27.5498 35.0727C27.6517 35.015 27.7389 34.9389 27.8118 34.851C28.5024 34.3041 29.2741 33.7796 30.1537 33.2979C30.2204 33.2779 30.2863 33.2506 30.3499 33.2134C30.3921 33.1888 30.4308 33.1603 30.4681 33.1301C33.262 31.675 37.1131 30.6492 42.8139 30.6492C48.4387 30.6492 54.8835 31.3943 60.0363 36.9211C61.3594 38.3403 62.121 40.3299 62.1256 42.3795C62.1298 44.4031 61.4251 46.2834 60.1409 47.6742ZM42.8139 38.3814C37.4051 38.3814 34.157 39.7067 31.2283 43.1079C30.2591 44.2338 30.3091 46.0109 31.34 47.0697C32.371 48.1283 33.9982 48.0734 34.9676 46.9478C36.621 45.0275 38.361 43.9868 42.8139 43.9868C46.249 43.9868 48.5168 44.4586 50.6602 46.948C51.1432 47.5089 51.8247 47.8307 52.5299 47.8307C53.1855 47.8307 53.8099 47.5604 54.2875 47.0699C55.3184 46.0113 55.3685 44.2341 54.3991 43.1081C51.4706 39.7065 48.2222 38.3814 42.8139 38.3814ZM53.003 45.5776C52.8744 45.7098 52.7063 45.7825 52.5299 45.7825C52.3371 45.7825 52.1581 45.698 52.0262 45.5447C49.4406 42.542 46.5845 41.9388 42.814 41.9388C37.7279 41.9388 35.5184 43.3186 33.6018 45.5447C33.3406 45.8479 32.9021 45.8625 32.6248 45.5778C32.3471 45.2927 32.3337 44.814 32.5947 44.5108C35.1565 41.5354 37.9263 40.4293 42.8142 40.4293C47.702 40.4293 50.4716 41.5356 53.0334 44.5108C53.294 44.814 53.2806 45.2925 53.003 45.5776Z" fill="black"/>
</svg>
