<svg width="42" height="60" viewBox="0 0 42 60" fill="none" xmlns="http://www.w3.org/2000/svg">
<path d="M20.847 5.275C19.8666 8.205 19.1104 11.2053 18.585 14.25L19.625 16.4585H22.375L23.415 14.25C23.415 14.25 23.125 7.2085 25.0835 1.25C22.957 1.5465 21.553 3.25 20.847 5.275Z" fill="#A5CC2A"/>
<path d="M21.153 5.275C22.1334 8.205 22.8896 11.2053 23.415 14.25L22.375 16.4585H19.625L18.585 14.25C18.585 14.25 18.875 7.2085 16.9165 1.25C19.043 1.5465 20.447 3.25 21.153 5.275Z" fill="#BAE543"/>
<path d="M23.415 14.25H18.585C17.585 23.6755 1.095 27.3895 1.095 37.572C1.095 47.7545 9.665 55.0625 21 55.0625C32.335 55.0625 40.905 47.755 40.905 37.572C40.905 27.389 24.415 23.6755 23.415 14.25Z" fill="#B560E8"/>
<path d="M22.5165 14.25H19.4835C18.8555 23.6755 8.5 27.3895 8.5 37.572C8.5 47.7545 13.882 55.0625 21 55.0625C28.118 55.0625 33.5 47.755 33.5 37.572C33.5 27.389 23.1445 23.6755 22.5165 14.25Z" fill="#954ACD"/>
<path d="M21.5915 14.25H20.4085C20.1635 23.6755 16.125 27.3895 16.125 37.572C16.125 47.7545 18.225 55.0625 21 55.0625C23.775 55.0625 25.875 47.755 25.875 37.572C25.875 27.389 21.8365 23.6755 21.5915 14.25Z" fill="#B560E8"/>
<path d="M41.78 37.5725C41.78 31.848 37.089 28.1225 32.5525 24.5225C28.5335 21.3325 24.738 18.318 24.288 14.1725C24.2705 13.6275 24.101 7.0395 25.9165 1.5225C25.9629 1.38121 25.9725 1.23044 25.9444 1.0844C25.9164 0.938364 25.8516 0.801877 25.7562 0.687811C25.6608 0.573745 25.5379 0.48586 25.3991 0.432443C25.2604 0.379026 25.1103 0.361839 24.963 0.382501C23.7587 0.553406 22.6463 1.12288 21.8035 2C21.5034 2.31247 21.2329 2.65209 20.9955 3.0145C20.7588 2.65069 20.4895 2.30913 20.191 1.994C19.3487 1.12065 18.2385 0.554105 17.037 0.384501C16.8897 0.363839 16.7396 0.381026 16.6009 0.434443C16.4621 0.48786 16.3392 0.575745 16.2438 0.689811C16.1484 0.803877 16.0836 0.940364 16.0556 1.0864C16.0275 1.23244 16.0371 1.38321 16.0835 1.5245C17.8985 7.0435 17.7295 13.6295 17.712 14.1745C17.262 18.3135 13.2765 21.481 9.7585 24.2745C9.66649 24.3453 9.58948 24.4336 9.53195 24.5344C9.47441 24.6352 9.43752 24.7465 9.4234 24.8617C9.40928 24.9769 9.41823 25.0938 9.44972 25.2055C9.48121 25.3172 9.53461 25.4216 9.60682 25.5124C9.67902 25.6033 9.76859 25.6789 9.8703 25.7348C9.97201 25.7908 10.0838 25.8259 10.1993 25.8382C10.3147 25.8505 10.4314 25.8397 10.5426 25.8064C10.6538 25.7732 10.7573 25.7181 10.847 25.6445C12.7548 24.2109 14.5426 22.6242 16.1925 20.9C15.3615 22.184 14.3925 23.4115 13.4005 24.666C10.561 28.255 7.625 31.966 7.625 37.572C7.625 44.233 9.829 49.75 13.3785 52.946C6.4735 50.5305 1.97 44.796 1.97 37.572C2.01396 35.454 2.78049 33.4146 4.1425 31.792C4.28433 31.6083 4.34735 31.3757 4.31772 31.1455C4.28809 30.9153 4.16823 30.7063 3.9845 30.5645C3.80077 30.4227 3.56823 30.3596 3.33803 30.3893C3.10783 30.4189 2.89883 30.5388 2.757 30.7225C1.05 32.934 0.220001 35.175 0.220001 37.5725C0.220001 47.7345 8.1925 55.2305 19.3965 55.8855C19.0433 56.7 18.5984 57.4717 18.0705 58.1855C17.9281 58.3574 17.8567 58.5773 17.871 58.8001C17.8853 59.0229 17.9842 59.2318 18.1474 59.3841C18.3107 59.5364 18.5259 59.6206 18.7492 59.6195C18.9724 59.6183 19.1868 59.532 19.3485 59.378C19.381 59.347 19.411 59.3135 19.4385 59.278C19.5065 59.19 19.7885 58.8125 20.125 58.2715V58.7495C20.125 58.9816 20.2172 59.2041 20.3813 59.3682C20.5454 59.5323 20.7679 59.6245 21 59.6245C21.2321 59.6245 21.4546 59.5323 21.6187 59.3682C21.7828 59.2041 21.875 58.9816 21.875 58.7495V58.2715C22.21 58.8125 22.4935 59.19 22.5615 59.278C22.589 59.3135 22.619 59.347 22.6515 59.378L22.6565 59.383C22.7396 59.462 22.8376 59.5239 22.9447 59.565C23.0518 59.6062 23.1659 59.6257 23.2806 59.6227C23.3953 59.6196 23.5082 59.5939 23.613 59.5472C23.7177 59.5004 23.8122 59.4334 23.891 59.35C24.0365 59.1965 24.1217 58.9956 24.1309 58.7843C24.1401 58.573 24.0727 58.3655 23.941 58.2C23.4077 57.481 22.9586 56.7033 22.6025 55.882C33.808 55.2305 41.78 47.7345 41.78 37.5725ZM21.012 54.1865H21H20.988C19.312 54.1595 17 48.3885 17 37.5725C17 32.403 18.088 28.877 19.14 25.4675C19.9789 22.9728 20.6012 20.4105 21 17.809C21.3988 20.4105 22.0211 22.9728 22.86 25.4675C23.91 28.877 25 32.403 25 37.5725C25 48.3885 22.688 54.1595 21.012 54.1865ZM23.05 3.2265C23.2656 3.00814 23.5051 2.81476 23.764 2.65C23.3391 4.32358 23.0301 6.02444 22.839 7.7405C22.586 6.8405 22.302 5.912 21.981 4.9875C21.9705 4.9575 21.9565 4.9305 21.946 4.9005C22.2158 4.28359 22.5892 3.71742 23.05 3.2265ZM18.9415 3.2195C19.5659 3.89207 20.0386 4.69092 20.3275 5.562C21.1839 8.11698 21.8651 10.7274 22.3665 13.375H19.4765C19.5002 9.76288 19.0837 6.16133 18.236 2.65C18.4921 2.81281 18.729 3.00383 18.9425 3.2195H18.9415ZM9.375 37.5725C9.375 32.575 11.997 29.2605 14.775 25.752C16.288 23.84 17.83 21.889 18.9145 19.642C18.5285 21.514 18.0075 23.2075 17.47 24.951C16.3775 28.485 15.25 32.1385 15.25 37.5725C15.25 43.9725 16.1235 50.4125 18.0105 53.699C12.865 51.956 9.375 45.7065 9.375 37.5725ZM28.55 52.9695C29.9955 51.6504 31.1789 50.0702 32.038 48.312C32.0906 48.2092 32.1223 48.097 32.1313 47.9819C32.1403 47.8668 32.1265 47.751 32.0906 47.6413C32.0546 47.5315 31.9973 47.43 31.922 47.3425C31.8466 47.255 31.7547 47.1833 31.6515 47.1315C31.5483 47.0797 31.4359 47.0488 31.3207 47.0407C31.2055 47.0326 31.0899 47.0473 30.9804 47.0841C30.8709 47.1208 30.7698 47.1789 30.6829 47.2549C30.596 47.3309 30.525 47.4234 30.474 47.527C28.915 50.6315 26.64 52.76 24.0015 53.677C25.88 50.384 26.7515 43.96 26.7515 37.5725C26.7515 32.1385 25.624 28.485 24.5335 24.951C23.996 23.2075 23.475 21.514 23.089 19.642C24.1735 21.889 25.7155 23.842 27.2285 25.752C30.0045 29.2605 32.6285 32.575 32.6285 37.5725C32.6348 39.3362 32.4566 41.0958 32.097 42.8225C32.0731 42.9348 32.0716 43.0508 32.0925 43.1637C32.1134 43.2767 32.1563 43.3844 32.2189 43.4807C32.2814 43.5771 32.3623 43.6602 32.457 43.7252C32.5516 43.7903 32.6582 43.8361 32.7705 43.86C32.8828 43.8839 32.9988 43.8854 33.1117 43.8645C33.2247 43.8436 33.3324 43.8007 33.4287 43.7381C33.5251 43.6756 33.6082 43.5947 33.6732 43.5C33.7383 43.4054 33.7841 43.2988 33.808 43.1865C34.1924 41.3401 34.3825 39.4585 34.375 37.5725C34.375 31.9665 31.439 28.2555 28.5995 24.6665C27.5995 23.402 26.6225 22.1665 25.7875 20.8665C27.54 22.694 29.4387 24.3756 31.4645 25.8945C35.8695 29.391 40.03 32.6945 40.03 37.5725C40.03 44.8185 35.495 50.5685 28.55 52.9695Z" fill="#1E0C30"/>
<path d="M6.18901 29.2375C6.40644 29.2377 6.61612 29.1567 6.77701 29.0105C7.21951 28.6105 7.70751 28.187 8.26801 27.721C8.4394 27.5706 8.54533 27.3593 8.56324 27.132C8.58116 26.9047 8.50965 26.6794 8.36394 26.5041C8.21823 26.3287 8.00983 26.2171 7.7831 26.1931C7.55637 26.1691 7.32922 26.2346 7.15001 26.3755C6.57001 26.8575 6.06351 27.2955 5.60001 27.7145C5.46917 27.8332 5.37733 27.9888 5.33658 28.1607C5.29583 28.3326 5.30808 28.5128 5.37171 28.6776C5.43535 28.8425 5.54739 28.9842 5.69309 29.0841C5.83879 29.184 6.01133 29.2375 6.18801 29.2375H6.18901Z" fill="#1E0C30"/>
<path d="M37.905 36.7C37.6729 36.7 37.4504 36.7922 37.2863 36.9563C37.1222 37.1204 37.03 37.3429 37.03 37.575C37.0338 38.862 36.8473 40.1425 36.4765 41.375C36.4218 41.5931 36.4532 41.8239 36.5642 42.0195C36.6751 42.2151 36.8571 42.3605 37.0724 42.4255C37.2877 42.4905 37.5198 42.47 37.7204 42.3685C37.9211 42.2669 38.0749 42.092 38.15 41.88C38.5709 40.483 38.7829 39.0315 38.779 37.5725C38.7783 37.341 38.686 37.1193 38.5222 36.9557C38.3584 36.7922 38.1365 36.7002 37.905 36.7Z" fill="#1E0C30"/>
</svg>
