<svg width="59" height="53" viewBox="0 0 59 53" fill="none" xmlns="http://www.w3.org/2000/svg">
<path d="M42.9105 52.0023H40.96C32.3423 52.0023 25.3562 44.8937 25.3562 36.1247C25.3562 27.3557 32.3422 20.247 40.96 20.247H42.9105C51.5282 20.247 58.5143 27.3556 58.5143 36.1247C58.5143 44.8937 51.5283 52.0023 42.9105 52.0023Z" fill="#D7322D"/>
<path d="M40.96 52.0023C49.5778 52.0023 56.5638 44.8936 56.5638 36.1247C56.5638 27.3557 49.5778 20.247 40.96 20.247C32.3423 20.247 25.3562 27.3557 25.3562 36.1247C25.3562 44.8936 32.3423 52.0023 40.96 52.0023Z" fill="#F04B37"/>
<path d="M29.2571 32.1553H27.3067C18.689 32.1553 11.7029 25.0467 11.7029 16.2776C11.7029 7.50871 18.6888 0.399994 27.3067 0.399994H29.2571C37.8748 0.399994 44.8609 7.50858 44.8609 16.2776C44.8609 25.0467 37.875 32.1553 29.2571 32.1553Z" fill="#D7322D"/>
<path d="M27.3067 32.1553C35.9244 32.1553 42.9105 25.0466 42.9105 16.2776C42.9105 7.50865 35.9244 0.399994 27.3067 0.399994C18.6889 0.399994 11.7029 7.50865 11.7029 16.2776C11.7029 25.0466 18.6889 32.1553 27.3067 32.1553Z" fill="#F04B37"/>
<path d="M17.5543 52.0023H15.6038C6.98612 52.0023 0 44.8937 0 36.1247C0 27.3557 6.986 20.247 15.6038 20.247H17.5543C26.172 20.247 33.1581 27.3556 33.1581 36.1247C33.1581 44.8937 26.1721 52.0023 17.5543 52.0023Z" fill="#D7322D"/>
<path d="M15.6038 52.0023C24.2216 52.0023 31.2076 44.8936 31.2076 36.1247C31.2076 27.3557 24.2216 20.247 15.6038 20.247C6.98606 20.247 0 27.3557 0 36.1247C0 44.8936 6.98606 52.0023 15.6038 52.0023Z" fill="#F04B37"/>
<path d="M26.6565 40.7556C27.7338 40.7556 28.607 39.867 28.607 38.7709C28.607 37.6748 27.7338 36.7862 26.6565 36.7862C25.5793 36.7862 24.7061 37.6748 24.7061 38.7709C24.7061 39.867 25.5793 40.7556 26.6565 40.7556Z" fill="#FF8773"/>
<path d="M39.6597 47.7021C40.7369 47.7021 41.6101 46.8135 41.6101 45.7174C41.6101 44.6212 40.7369 43.7327 39.6597 43.7327C38.5824 43.7327 37.7092 44.6212 37.7092 45.7174C37.7092 46.8135 38.5824 47.7021 39.6597 47.7021Z" fill="#FF8773"/>
<path d="M4.87618 37.7786C5.9534 37.7786 6.82666 36.89 6.82666 35.7938C6.82666 34.6977 5.9534 33.8091 4.87618 33.8091C3.79896 33.8091 2.9257 34.6977 2.9257 35.7938C2.9257 36.89 3.79896 37.7786 4.87618 37.7786Z" fill="#FF8773"/>
<path d="M33.1581 19.2547C34.2353 19.2547 35.1086 18.3661 35.1086 17.27C35.1086 16.1738 34.2353 15.2852 33.1581 15.2852C32.0809 15.2852 31.2076 16.1738 31.2076 17.27C31.2076 18.3661 32.0809 19.2547 33.1581 19.2547Z" fill="#FF8773"/>
<path d="M24.2185 33.8091C24.4878 33.8091 24.7061 33.587 24.7061 33.3129C24.7061 33.0389 24.4878 32.8168 24.2185 32.8168C23.9491 32.8168 23.7308 33.0389 23.7308 33.3129C23.7308 33.587 23.9491 33.8091 24.2185 33.8091Z" fill="#FF8773"/>
<path d="M39.3346 34.4708C39.6039 34.4708 39.8223 34.2486 39.8223 33.9746C39.8223 33.7006 39.6039 33.4784 39.3346 33.4784C39.0653 33.4784 38.847 33.7006 38.847 33.9746C38.847 34.2486 39.0653 34.4708 39.3346 34.4708Z" fill="#FF8773"/>
<path d="M25.0311 19.0893C25.3004 19.0893 25.5187 18.8672 25.5187 18.5931C25.5187 18.3191 25.3004 18.097 25.0311 18.097C24.7618 18.097 24.5435 18.3191 24.5435 18.5931C24.5435 18.8672 24.7618 19.0893 25.0311 19.0893Z" fill="#FF8773"/>
<path d="M11.5404 45.0558C11.8097 45.0558 12.028 44.8337 12.028 44.5596C12.028 44.2856 11.8097 44.0635 11.5404 44.0635C11.271 44.0635 11.0527 44.2856 11.0527 44.5596C11.0527 44.8337 11.271 45.0558 11.5404 45.0558Z" fill="#FF8773"/>
<path d="M14.1409 36.7862C14.7693 36.7862 15.2787 36.2679 15.2787 35.6285C15.2787 34.9891 14.7693 34.4708 14.1409 34.4708C13.5126 34.4708 13.0032 34.9891 13.0032 35.6285C13.0032 36.2679 13.5126 36.7862 14.1409 36.7862Z" fill="#FF8773"/>
<path d="M53.313 41.2518C53.9413 41.2518 54.4507 40.7334 54.4507 40.094C54.4507 39.4547 53.9413 38.9363 53.313 38.9363C52.6846 38.9363 52.1752 39.4547 52.1752 40.094C52.1752 40.7334 52.6846 41.2518 53.313 41.2518Z" fill="#FF8773"/>
<path d="M46.6489 31.8244C47.2773 31.8244 47.7867 31.3061 47.7867 30.6667C47.7867 30.0273 47.2773 29.509 46.6489 29.509C46.0206 29.509 45.5112 30.0273 45.5112 30.6667C45.5112 31.3061 46.0206 31.8244 46.6489 31.8244Z" fill="#FF8773"/>
<path d="M23.4057 9.16567C24.0341 9.16567 24.5434 8.64735 24.5434 8.00797C24.5434 7.36859 24.0341 6.85027 23.4057 6.85027C22.7774 6.85027 22.268 7.36859 22.268 8.00797C22.268 8.64735 22.7774 9.16567 23.4057 9.16567Z" fill="#FF8773"/>
<path d="M18.0419 27.1935C18.6703 27.1935 19.1797 26.6752 19.1797 26.0358C19.1797 25.3964 18.6703 24.8781 18.0419 24.8781C17.4136 24.8781 16.9042 25.3964 16.9042 26.0358C16.9042 26.6752 17.4136 27.1935 18.0419 27.1935Z" fill="#FF8773"/>
</svg>
