<svg width="64" height="64" viewBox="0 0 64 64" fill="none" xmlns="http://www.w3.org/2000/svg">
<path d="M46.4388 0L64 17.5612V46.4375L46.4388 64H17.5625L0 46.4388V17.5612L17.5612 0H46.4388ZM5.33333 44.2279L19.7721 58.6667H44.2279L58.6667 44.2279V19.7721L44.2279 5.33333H19.7708L5.33333 19.7721V44.2279Z" fill="#FFCE00"/>
<path d="M32 20C34.3438 20 36.5267 20.6855 38.3763 21.8522L45.3333 14.8945L49.1055 18.6667L42.1478 25.6237C43.3145 27.4733 44 29.6562 44 32C44 34.3438 43.3145 36.5267 42.1478 38.3763L49.1055 45.3333L45.3333 49.1055L38.3763 42.1478C36.5267 43.3145 34.3438 44 32 44C29.6562 44 27.4733 43.3145 25.6237 42.1478L18.6667 49.1055L14.8945 45.3333L21.8522 38.3763C20.6855 36.5267 20 34.3438 20 32C20 29.6562 20.6855 27.4733 21.8522 25.6237L14.8945 18.6667L18.6667 14.8945L25.6237 21.8522C27.4733 20.6855 29.6562 20 32 20ZM32 38.6667C35.6758 38.6667 38.6667 35.6758 38.6667 32C38.6667 28.3242 35.6758 25.3333 32 25.3333C28.3242 25.3333 25.3333 28.3242 25.3333 32C25.3333 35.6758 28.3242 38.6667 32 38.6667Z" fill="#FFCE00"/>
</svg>
