<svg width="64" height="64" viewBox="0 0 64 64" fill="none" xmlns="http://www.w3.org/2000/svg">
<g clip-path="url(#clip0)">
<path d="M4.80217 59.6349C4.20939 58.4865 4.00431 57.4161 3.97843 56.5304C3.934 55.0407 5.07023 53.7853 6.55755 53.6891C7.74554 53.6119 8.84418 53.797 9.77778 54.0748C11.7836 54.6725 12.8891 56.8126 12.2158 58.7941C11.9023 59.7164 11.4174 60.7194 10.6669 61.6437C9.72749 62.8009 8.04681 63.0011 6.85687 62.1032C6.15032 61.5695 5.39543 60.7829 4.80217 59.6349Z" fill="#A82B2B"/>
<path d="M49.8658 0C51.1582 0 52.2032 0.309571 53.002 0.692384C54.3458 1.33692 54.9395 2.92286 54.3423 4.2881C53.8658 5.37892 53.1968 6.27052 52.5215 6.97218C51.0704 8.48 48.6612 8.48 47.2095 6.97218C46.5342 6.27052 45.8658 5.37892 45.3887 4.2881C44.792 2.92286 45.3858 1.33692 46.7295 0.692384C47.5284 0.309571 48.5733 0 49.8658 0V0Z" fill="#A82B2B"/>
<path d="M45.4717 4.46924C45.9409 5.47803 46.5723 6.31007 47.2095 6.97218C48.6617 8.4795 51.0703 8.4795 52.521 6.97218C53.0596 6.41309 53.5928 5.73438 54.0269 4.93067C51.3423 3.67188 48.2686 3.5962 45.4717 4.46924Z" fill="#8E2424"/>
<path d="M6.622 53.6866C6.58977 56.9742 7.89202 59.9977 10.0458 62.2071C10.2753 62.0563 10.4853 61.8683 10.6669 61.6441C11.4165 60.7193 11.9023 59.7154 12.2153 58.7945C12.8891 56.8121 11.7836 54.6725 9.77777 54.0748C8.86078 53.8028 7.78509 53.6188 6.622 53.6866Z" fill="#8E2424"/>
<path d="M17.8335 41.7565C21.6245 40.8492 25.0625 39.6222 28.2002 37.1993C33.2481 33.3009 36.1231 27.4669 37.0523 21.23C37.6524 17.2037 37.0899 13.7705 39.8692 10.3731C43.459 5.98439 50.2964 4.55031 55.0611 7.94338C61.4332 12.4815 60.254 22.2701 59.045 28.8848C57.2559 38.6764 52.3433 47.7399 44.4014 53.8805C41.1304 56.4098 37.5767 58.5836 33.811 60.2946C29.4834 62.2609 24.5796 64.2804 19.7368 63.9679C13.5244 63.5666 8.81392 58.2052 9.21529 51.9928C9.53512 47.0411 13.1572 42.8751 17.8335 41.7565Z" fill="#EA4444"/>
<path d="M18.8798 63.881C15.0883 61.8649 12.6264 57.7604 12.9204 53.1974C13.2397 48.2457 15.3881 45.5621 20.0639 44.4439C23.8554 43.5372 28.7681 40.8267 31.9062 38.4039C36.9531 34.5059 39.8286 28.6729 40.7573 22.4351C41.3574 18.4097 40.7944 14.9751 43.5747 11.5781C46.1011 8.48732 50.2388 6.86329 54.129 7.35646C49.4414 4.74513 43.231 6.26271 39.8687 10.3736C37.0899 13.7705 37.6514 17.2036 37.0527 21.2295C36.1226 27.4668 33.2485 33.3013 28.1997 37.1993C25.063 39.6226 21.625 40.8487 17.8335 41.7569C13.1572 42.8751 9.5351 47.0411 9.21527 51.9933C8.83295 57.9161 13.0966 63.0665 18.8798 63.881Z" fill="#D93131"/>
<path d="M41.9507 18.3995C41.3721 19.7769 42.0191 21.3628 43.3965 21.9415L50.7598 25.0362C52.1368 25.6153 53.7227 24.9678 54.3018 23.5904C54.8804 22.2129 54.2335 20.627 52.856 20.0484L45.4927 16.9537C44.1158 16.3746 42.5298 17.022 41.9507 18.3995Z" fill="#F89696"/>
<path d="M38.9453 30.7315C38.3862 32.1173 39.0557 33.6939 40.4414 34.253L47.8477 37.2428C49.2329 37.8019 50.8096 37.1319 51.3687 35.7467C51.9283 34.3609 51.2583 32.7848 49.8726 32.2252L42.4663 29.2359C41.0811 28.6764 39.5044 29.3463 38.9453 30.7315Z" fill="#F89696"/>
<path d="M31.8321 40.1769C31.2027 41.5318 31.791 43.1402 33.146 43.7696L40.3902 47.1339C41.7451 47.7633 43.354 47.1749 43.9829 45.8199C44.6123 44.4649 44.024 42.8561 42.669 42.2267L35.4248 38.8624C34.0698 38.2335 32.4614 38.8219 31.8321 40.1769Z" fill="#F89696"/>
<path d="M22.459 48.3292C21.7548 49.6471 22.2524 51.2862 23.5703 51.9899L30.6152 55.753C31.9331 56.4572 33.5723 55.9596 34.2759 54.6417C34.98 53.3238 34.4824 51.6847 33.1646 50.9811L26.1196 47.2179C24.8017 46.5138 23.1631 47.0113 22.459 48.3292Z" fill="#F89696"/>
</g>
<defs>
<clipPath id="clip0">
<rect width="64" height="64" fill="white" transform="matrix(-1 0 0 1 64 0)"/>
</clipPath>
</defs>
</svg>
