<svg width="64" height="64" viewBox="0 0 64 64" fill="none" xmlns="http://www.w3.org/2000/svg">
<g clip-path="url(#clip0)">
<path d="M9.72852 19.689C4.00244 22.3525 2.52783 31.3198 6.43457 39.7178C9.59375 46.5093 15.3052 50.8486 20.4028 50.8521C22.75 50.853 24.8726 52.2437 25.8628 54.3721C24.8726 52.2437 25.1768 49.7246 26.6875 47.9282C29.9692 44.0269 30.3291 36.8633 27.1699 30.0718C23.2637 21.6738 15.4546 17.0249 9.72852 19.689Z" fill="#96CD82"/>
<path d="M23.5454 48.4473C23.5161 48.3931 23.5025 48.3364 23.4751 48.2817C18.21 48.4404 12.0405 44.5864 8.04591 38.0854C5.89601 34.5869 4.72658 30.8672 4.48537 27.4604C3.86525 31.1021 4.46584 35.4858 6.43459 39.7178C9.59377 46.5093 15.3052 50.8486 20.4028 50.8521C22.75 50.8535 24.8726 52.2437 25.8628 54.3721C25.541 53.6802 25.3652 52.9468 25.3164 52.2119C24.7471 50.9473 24.2002 49.6709 23.5454 48.4473Z" fill="#7DBE81"/>
<path d="M53.1372 10.7583C46.2763 7.63624 37.0029 13.2622 32.4238 23.3242C28.7207 31.4614 29.2217 40.0078 33.1772 44.6314C34.9985 46.7603 35.3862 49.7637 34.2256 52.314C35.3862 49.7637 37.9057 48.0835 40.707 48.0581C46.7915 48.0039 53.5649 42.7681 57.268 34.6309C61.8471 24.5684 59.9975 13.8804 53.1372 10.7583Z" fill="#96CD82"/>
<path d="M29.956 33.0547C29.7388 36.9092 30.48 40.436 32.0942 43.1045C32.1538 43.2031 32.2139 43.3003 32.2759 43.397C32.5552 43.8306 32.8496 44.249 33.1772 44.6313C33.1811 44.6362 33.5293 45.0879 33.6821 45.3184C33.8223 45.5361 33.9512 45.7603 34.0693 45.9888C35.0742 47.9336 35.1572 50.2666 34.2256 52.314C34.3784 51.978 34.562 51.6626 34.7598 51.3589L40.9683 37.2065L29.956 33.0547Z" fill="#7DBE81"/>
<path d="M41.6143 37.0527C41.2031 37.0527 40.8174 36.8027 40.6636 36.396C40.4653 35.8711 40.73 35.2847 41.2549 35.0864L53.4814 30.4702C54.0059 30.272 54.5923 30.5366 54.7905 31.0615C54.9893 31.5864 54.7241 32.1728 54.1997 32.3711L41.9731 36.9873C41.855 37.0317 41.7329 37.0527 41.6143 37.0527Z" fill="#B4E6A0"/>
<path d="M29.4375 64C29.2974 64 29.1558 63.9712 29.02 63.9097C28.5088 63.6787 28.2817 63.0772 28.5127 62.5654L48.6797 17.9336C48.9106 17.4229 49.5117 17.1953 50.0239 17.4263C50.5347 17.6577 50.7617 18.2588 50.5308 18.7705L30.3643 63.4028C30.1943 63.7778 29.8242 64 29.4375 64Z" fill="#CDF5A0"/>
<path d="M29.4394 64C29.0517 64 28.6816 63.7769 28.5117 63.4009L15.6655 34.8086C15.4355 34.2964 15.6636 33.6953 16.1753 33.4653C16.6904 33.2339 17.2876 33.4644 17.5185 33.9751L30.3647 62.5674C30.5952 63.0791 30.3672 63.6807 29.855 63.9107C29.7192 63.9712 29.5781 64 29.4394 64Z" fill="#B4E6A0"/>
<path d="M19.2988 41.5586C19.1758 41.5586 19.0517 41.5366 18.9297 41.4888L11.1221 38.4492C10.5991 38.2461 10.3413 37.6567 10.5449 37.1338C10.7471 36.6118 11.3335 36.3511 11.8603 36.5566L19.6675 39.5962C20.1904 39.7993 20.4482 40.3887 20.2451 40.9116C20.0893 41.3125 19.7055 41.5586 19.2988 41.5586Z" fill="#B4E6A0"/>
<path d="M29.4385 50.9756C29.4385 47.8477 31.2217 44.9746 34.0571 43.6533C40.2153 40.7842 44.6768 32.3311 44.6768 22.3491C44.6768 10.0063 37.8545 0 29.4385 0C21.0229 0 14.2007 10.0063 14.2007 22.3491C14.2007 32.3311 18.6621 40.7842 24.8198 43.6533C27.6553 44.9746 29.4385 47.8477 29.4385 50.9756Z" fill="#96CD82"/>
<path d="M29.5396 42.793C23.958 39.8467 19.2681 32.5752 17.8052 23.522C16.5273 15.6157 18.022 8.20801 21.3286 3.42773C17.0527 7.38574 14.2007 14.3853 14.2007 22.3491C14.2007 32.3311 18.6621 40.7842 24.8198 43.6533C27.6553 44.9746 29.4385 47.8477 29.4385 50.9756C29.4385 50.5635 29.4795 50.1582 29.5396 49.7578V42.793Z" fill="#7DBE81"/>
<path d="M29.4385 39.6191C29.1787 39.6191 28.9185 39.5195 28.7202 39.3213L16.5806 27.1816C16.1836 26.7847 16.1836 26.1421 16.5806 25.7451C16.9771 25.3481 17.6201 25.3481 18.0166 25.7451L30.1567 37.8848C30.5537 38.2817 30.5537 38.9243 30.1567 39.3213C29.9585 39.52 29.6982 39.6191 29.4385 39.6191Z" fill="#B4E6A0"/>
<path d="M29.4385 31.4922C29.1787 31.4922 28.9185 31.3931 28.7202 31.1943C28.3232 30.7979 28.3232 30.1548 28.7202 29.7578L38.8789 19.5991C39.2759 19.2021 39.9185 19.2021 40.3154 19.5991C40.7124 19.9961 40.7124 20.6387 40.3154 21.0356L30.1567 31.1943C29.9585 31.3931 29.6982 31.4922 29.4385 31.4922Z" fill="#B4E6A0"/>
<path d="M29.4385 24.3809C29.1787 24.3809 28.9185 24.2817 28.7202 24.0835L21.6089 16.9722C21.2124 16.5752 21.2124 15.9326 21.6089 15.5356C22.0059 15.1387 22.6489 15.1387 23.0454 15.5356L30.1567 22.647C30.5537 23.0439 30.5537 23.6865 30.1567 24.0835C29.9585 24.2817 29.6982 24.3809 29.4385 24.3809Z" fill="#B4E6A0"/>
<path d="M29.4385 64C28.877 64 28.4224 63.5454 28.4224 62.9839V9.14307C28.4224 8.58154 28.877 8.12695 29.4385 8.12695C30 8.12695 30.4541 8.58154 30.4541 9.14307V62.9839C30.4541 63.5454 30 64 29.4385 64Z" fill="#CDF5A0"/>
</g>
<defs>
<clipPath id="clip0">
<rect width="64" height="64" fill="white"/>
</clipPath>
</defs>
</svg>
